<?xml version="1.0" encoding="utf-8" standalone="no"?>
<!DOCTYPE svg PUBLIC "-//W3C//DTD SVG 1.1//EN"
  "http://www.w3.org/Graphics/SVG/1.1/DTD/svg11.dtd">
<!-- Created with matplotlib (https://matplotlib.org/) -->
<svg height="343.664844pt" version="1.1" viewBox="0 0 438.670313 343.664844" width="438.670313pt" xmlns="http://www.w3.org/2000/svg" xmlns:xlink="http://www.w3.org/1999/xlink">
 <metadata>
  <rdf:RDF xmlns:cc="http://creativecommons.org/ns#" xmlns:dc="http://purl.org/dc/elements/1.1/" xmlns:rdf="http://www.w3.org/1999/02/22-rdf-syntax-ns#">
   <cc:Work>
    <dc:type rdf:resource="http://purl.org/dc/dcmitype/StillImage"/>
    <dc:date>2021-03-27T00:14:09.063311</dc:date>
    <dc:format>image/svg+xml</dc:format>
    <dc:creator>
     <cc:Agent>
      <dc:title>Matplotlib v3.3.4, https://matplotlib.org/</dc:title>
     </cc:Agent>
    </dc:creator>
   </cc:Work>
  </rdf:RDF>
 </metadata>
 <defs>
  <style type="text/css">*{stroke-linecap:butt;stroke-linejoin:round;}</style>
 </defs>
 <g id="figure_1">
  <g id="patch_1">
   <path d="M 0 343.664844 
L 438.670313 343.664844 
L 438.670313 0 
L 0 0 
z
" style="fill:none;"/>
  </g>
  <g id="axes_1">
   <g id="patch_2">
    <path d="M 56.604687 296.397656 
L 369.084688 296.397656 
L 369.084688 24.597656 
L 56.604687 24.597656 
z
" style="fill:#ffffff;"/>
   </g>
   <g id="PathCollection_1">
    <path clip-path="url(#p466230ff40)" d="M 76.134687 296.397656 
L 95.664687 296.397656 
L 115.194687 296.397656 
L 134.724688 296.397656 
L 154.254687 296.397656 
L 173.784688 296.397656 
L 193.314687 296.397656 
L 199.292891 296.397656 
L 193.314687 291.197721 
L 179.762891 279.410156 
L 173.784688 274.210221 
L 160.232891 262.422656 
L 154.254687 257.222721 
L 140.702891 245.435156 
L 134.724688 240.235221 
L 121.172891 228.447656 
L 115.194687 223.247721 
L 101.642891 211.460156 
L 95.664687 206.260221 
L 82.112891 194.472656 
L 76.134687 189.272721 
L 62.582891 177.485156 
L 56.604687 172.285221 
L 56.604687 177.485156 
L 56.604687 194.472656 
L 56.604687 211.460156 
L 56.604687 228.447656 
L 56.604687 245.435156 
L 56.604687 262.422656 
L 56.604687 279.410156 
L 56.604687 296.397656 
z
" style="fill:#481b6d;"/>
    <path clip-path="url(#p466230ff40)" d="M 310.494688 296.397656 
L 330.024688 296.397656 
L 349.554688 296.397656 
L 369.084688 296.397656 
L 369.084688 279.410156 
L 369.084688 262.422656 
L 369.084688 245.435156 
L 369.084688 228.447656 
L 369.084688 211.460156 
L 369.084688 194.472656 
L 369.084688 177.485156 
L 369.084688 160.497656 
L 369.084688 143.510156 
L 369.084688 126.522656 
L 369.084688 109.535156 
L 369.084688 92.547656 
L 369.084688 75.560156 
L 369.084688 58.572656 
L 369.084688 41.585156 
L 369.084688 24.597656 
L 349.554688 24.597656 
L 330.024688 24.597656 
L 310.494688 24.597656 
L 290.964687 24.597656 
L 271.434688 24.597656 
L 251.904688 24.597656 
L 232.374687 24.597656 
L 212.844688 24.597656 
L 193.314687 24.597656 
L 173.784688 24.597656 
L 154.254687 24.597656 
L 134.724688 24.597656 
L 115.194687 24.597656 
L 95.664687 24.597656 
L 76.134687 24.597656 
L 56.604687 24.597656 
L 56.604687 41.585156 
L 56.604687 58.572656 
L 56.604687 75.560156 
L 56.604687 79.664824 
L 76.134687 79.093895 
L 95.664687 78.662395 
L 115.194687 78.324808 
L 134.724688 78.108281 
L 154.254687 78.108281 
L 173.784688 78.108281 
L 193.314687 78.108281 
L 212.844688 78.108281 
L 232.374687 78.108281 
L 251.904688 78.108281 
L 271.434688 78.108281 
L 290.964687 78.108281 
L 307.565188 92.547656 
L 307.565188 109.535156 
L 307.565188 126.522656 
L 307.565188 143.510156 
L 307.565188 160.497656 
L 307.565188 177.485156 
L 307.565188 194.472656 
L 307.565188 211.460156 
L 307.565188 228.447656 
L 307.316253 245.435156 
L 306.92814 262.422656 
L 306.432059 279.410156 
L 305.775678 296.397656 
z
" style="fill:#481b6d;"/>
   </g>
   <g id="PathCollection_2">
    <path clip-path="url(#p466230ff40)" d="M 193.314687 291.197721 
L 199.292891 296.397656 
L 212.844688 296.397656 
L 228.500934 296.397656 
L 212.844688 282.779608 
L 208.970934 279.410156 
L 193.314687 265.792108 
L 189.440934 262.422656 
L 173.784688 248.804608 
L 169.910934 245.435156 
L 154.254687 231.817108 
L 150.380934 228.447656 
L 134.724688 214.829608 
L 130.850934 211.460156 
L 115.194687 197.842108 
L 111.320934 194.472656 
L 95.664687 180.854608 
L 91.790934 177.485156 
L 76.134687 163.867108 
L 72.260934 160.497656 
L 56.604687 146.879608 
L 56.604687 160.497656 
L 56.604687 172.285221 
L 62.582891 177.485156 
L 76.134687 189.272721 
L 82.112891 194.472656 
L 95.664687 206.260221 
L 101.642891 211.460156 
L 115.194687 223.247721 
L 121.172891 228.447656 
L 134.724688 240.235221 
L 140.702891 245.435156 
L 154.254687 257.222721 
L 160.232891 262.422656 
L 173.784688 274.210221 
L 179.762891 279.410156 
z
" style="fill:#3f4788;"/>
    <path clip-path="url(#p466230ff40)" d="M 306.432059 279.410156 
L 306.92814 262.422656 
L 307.316253 245.435156 
L 307.565188 228.447656 
L 307.565188 211.460156 
L 307.565188 194.472656 
L 307.565188 177.485156 
L 307.565188 160.497656 
L 307.565188 143.510156 
L 307.565188 126.522656 
L 307.565188 109.535156 
L 307.565188 92.547656 
L 290.964687 78.108281 
L 271.434688 78.108281 
L 251.904688 78.108281 
L 232.374687 78.108281 
L 212.844688 78.108281 
L 193.314687 78.108281 
L 173.784688 78.108281 
L 154.254687 78.108281 
L 134.724688 78.108281 
L 115.194687 78.324808 
L 95.664687 78.662395 
L 76.134687 79.093895 
L 56.604687 79.664824 
L 56.604687 83.769493 
L 76.134687 82.627633 
L 95.664687 81.764634 
L 115.194687 81.08946 
L 134.724688 80.656406 
L 154.254688 80.656406 
L 173.784688 80.656406 
L 193.314687 80.656406 
L 212.844688 80.656406 
L 232.374687 80.656406 
L 251.904688 80.656406 
L 271.434688 80.656406 
L 290.964687 80.656406 
L 304.635688 92.547656 
L 304.635688 109.535156 
L 304.635688 126.522656 
L 304.635688 143.510156 
L 304.635688 160.497656 
L 304.635688 177.485156 
L 304.635688 194.472656 
L 304.635688 211.460156 
L 304.635688 228.447656 
L 304.137819 245.435156 
L 303.361592 262.422656 
L 302.36943 279.410156 
L 301.056669 296.397656 
L 305.775678 296.397656 
z
" style="fill:#3f4788;"/>
   </g>
   <g id="PathCollection_3">
    <path clip-path="url(#p466230ff40)" d="M 212.844688 282.779608 
L 228.500934 296.397656 
L 232.374687 296.397656 
L 251.904688 296.397656 
L 257.708976 296.397656 
L 251.904688 291.348995 
L 238.178976 279.410156 
L 232.374687 274.361495 
L 218.648976 262.422656 
L 212.844688 257.373995 
L 199.118976 245.435156 
L 193.314687 240.386495 
L 179.588976 228.447656 
L 173.784688 223.398995 
L 160.058976 211.460156 
L 154.254687 206.411495 
L 140.528976 194.472656 
L 134.724687 189.423995 
L 120.998976 177.485156 
L 115.194687 172.436495 
L 101.468976 160.497656 
L 95.664687 155.448995 
L 81.938976 143.510156 
L 76.134687 138.461495 
L 62.408976 126.522656 
L 56.604687 121.473995 
L 56.604687 126.522656 
L 56.604687 143.510156 
L 56.604687 146.879608 
L 72.260934 160.497656 
L 76.134687 163.867108 
L 91.790934 177.485156 
L 95.664687 180.854608 
L 111.320934 194.472656 
L 115.194687 197.842108 
L 130.850934 211.460156 
L 134.724688 214.829608 
L 150.380934 228.447656 
L 154.254687 231.817108 
L 169.910934 245.435156 
L 173.784688 248.804608 
L 189.440934 262.422656 
L 193.314687 265.792108 
L 208.970934 279.410156 
z
" style="fill:#2e6e8e;"/>
    <path clip-path="url(#p466230ff40)" d="M 302.36943 279.410156 
L 303.361592 262.422656 
L 304.137819 245.435156 
L 304.635688 228.447656 
L 304.635688 211.460156 
L 304.635688 194.472656 
L 304.635688 177.485156 
L 304.635688 160.497656 
L 304.635688 143.510156 
L 304.635688 126.522656 
L 304.635688 109.535156 
L 304.635688 92.547656 
L 290.964687 80.656406 
L 271.434688 80.656406 
L 251.904688 80.656406 
L 232.374687 80.656406 
L 212.844688 80.656406 
L 193.314687 80.656406 
L 173.784688 80.656406 
L 154.254688 80.656406 
L 134.724688 80.656406 
L 115.194687 81.08946 
L 95.664687 81.764634 
L 76.134687 82.627633 
L 56.604687 83.769493 
L 56.604687 87.874161 
L 76.134687 86.161371 
L 95.664687 84.866874 
L 115.194687 83.854112 
L 134.724688 83.204531 
L 154.254687 83.204531 
L 173.784688 83.204531 
L 193.314687 83.204531 
L 212.844688 83.204531 
L 232.374687 83.204531 
L 251.904688 83.204531 
L 271.434688 83.204531 
L 290.964687 83.204531 
L 301.706188 92.547656 
L 301.706188 109.535156 
L 301.706188 126.522656 
L 301.706188 143.510156 
L 301.706188 160.497656 
L 301.706188 177.485156 
L 301.706188 194.472656 
L 301.706188 211.460156 
L 301.706188 228.447656 
L 300.959385 245.435156 
L 299.795044 262.422656 
L 298.306801 279.410156 
L 296.33766 296.397656 
L 301.056669 296.397656 
z
" style="fill:#2e6e8e;"/>
   </g>
   <g id="PathCollection_4">
    <path clip-path="url(#p466230ff40)" d="M 251.904688 291.348995 
L 257.708976 296.397656 
L 271.434688 296.397656 
L 286.917019 296.397656 
L 271.434688 282.930882 
L 267.387019 279.410156 
L 251.904688 265.943382 
L 247.857019 262.422656 
L 232.374687 248.955882 
L 228.327019 245.435156 
L 212.844688 231.968382 
L 208.797019 228.447656 
L 193.314687 214.980882 
L 189.267019 211.460156 
L 173.784688 197.993382 
L 169.737019 194.472656 
L 154.254687 181.005882 
L 150.207019 177.485156 
L 134.724688 164.018382 
L 130.677019 160.497656 
L 115.194687 147.030882 
L 111.147019 143.510156 
L 95.664687 130.043382 
L 91.617019 126.522656 
L 76.134687 113.055882 
L 72.087019 109.535156 
L 56.604687 96.068382 
L 56.604687 109.535156 
L 56.604687 121.473995 
L 62.408976 126.522656 
L 76.134687 138.461495 
L 81.938976 143.510156 
L 95.664687 155.448995 
L 101.468976 160.497656 
L 115.194687 172.436495 
L 120.998976 177.485156 
L 134.724688 189.423995 
L 140.528976 194.472656 
L 154.254687 206.411495 
L 160.058976 211.460156 
L 173.784688 223.398995 
L 179.588976 228.447656 
L 193.314687 240.386495 
L 199.118976 245.435156 
L 212.844688 257.373995 
L 218.648976 262.422656 
L 232.374687 274.361495 
L 238.178976 279.410156 
z
" style="fill:#21918c;"/>
    <path clip-path="url(#p466230ff40)" d="M 298.306801 279.410156 
L 299.795044 262.422656 
L 300.959385 245.435156 
L 301.706188 228.447656 
L 301.706188 211.460156 
L 301.706188 194.472656 
L 301.706188 177.485156 
L 301.706188 160.497656 
L 301.706188 143.510156 
L 301.706188 126.522656 
L 301.706188 109.535156 
L 301.706188 92.547656 
L 290.964687 83.204531 
L 271.434688 83.204531 
L 251.904688 83.204531 
L 232.374687 83.204531 
L 212.844688 83.204531 
L 193.314687 83.204531 
L 173.784688 83.204531 
L 154.254687 83.204531 
L 134.724688 83.204531 
L 115.194687 83.854112 
L 95.664687 84.866874 
L 76.134687 86.161371 
L 56.604687 87.874161 
L 56.604687 91.978829 
L 76.134687 89.695109 
L 95.664687 87.969113 
L 115.194687 86.618764 
L 134.724688 85.752656 
L 154.254687 85.752656 
L 173.784688 85.752656 
L 193.314687 85.752656 
L 212.844688 85.752656 
L 232.374687 85.752656 
L 251.904688 85.752656 
L 271.434688 85.752656 
L 290.964687 85.752656 
L 298.776688 92.547656 
L 298.776688 109.535156 
L 298.776688 126.522656 
L 298.776688 143.510156 
L 298.776688 160.497656 
L 298.776688 177.485156 
L 298.776688 194.472656 
L 298.776688 211.460156 
L 298.776688 228.447656 
L 297.780951 245.435156 
L 296.228497 262.422656 
L 294.244172 279.410156 
L 291.618651 296.397656 
L 296.33766 296.397656 
z
" style="fill:#21918c;"/>
   </g>
   <g id="PathCollection_5">
    <path clip-path="url(#p466230ff40)" d="M 271.434688 282.930882 
L 286.917019 296.397656 
L 290.964687 296.397656 
L 291.618651 296.397656 
L 294.244172 279.410156 
L 296.228497 262.422656 
L 297.780951 245.435156 
L 298.776688 228.447656 
L 298.776688 211.460156 
L 298.776688 194.472656 
L 298.776688 177.485156 
L 298.776688 160.497656 
L 298.776688 143.510156 
L 298.776688 126.522656 
L 298.776688 109.535156 
L 298.776688 92.547656 
L 290.964687 85.752656 
L 271.434688 85.752656 
L 251.904688 85.752656 
L 232.374687 85.752656 
L 212.844688 85.752656 
L 193.314687 85.752656 
L 173.784688 85.752656 
L 154.254687 85.752656 
L 134.724688 85.752656 
L 115.194687 86.618764 
L 95.664687 87.969113 
L 76.134687 89.695109 
L 56.604687 91.978829 
L 56.604687 92.547656 
L 56.604687 96.068382 
L 72.087019 109.535156 
L 76.134687 113.055882 
L 91.617019 126.522656 
L 95.664687 130.043382 
L 111.147019 143.510156 
L 115.194687 147.030882 
L 130.677019 160.497656 
L 134.724688 164.018382 
L 150.207019 177.485156 
L 154.254687 181.005882 
L 169.737019 194.472656 
L 173.784688 197.993382 
L 189.267019 211.460156 
L 193.314687 214.980882 
L 208.797019 228.447656 
L 212.844688 231.968382 
L 228.327019 245.435156 
L 232.374687 248.955882 
L 247.857019 262.422656 
L 251.904688 265.943382 
L 267.387019 279.410156 
z
M 277.065061 262.422656 
L 271.434688 257.525269 
L 257.535061 245.435156 
L 251.904688 240.537769 
L 238.005061 228.447656 
L 232.374688 223.550269 
L 218.475061 211.460156 
L 212.844688 206.562769 
L 198.945061 194.472656 
L 193.314687 189.575269 
L 179.415061 177.485156 
L 173.784688 172.587769 
L 159.885061 160.497656 
L 154.254688 155.600269 
L 140.355061 143.510156 
L 134.724688 138.612769 
L 120.825061 126.522656 
L 115.194687 121.625269 
L 101.295061 109.535156 
L 95.664687 104.637769 
L 81.765061 92.547656 
L 95.664687 91.071352 
L 115.194687 89.383415 
L 134.724688 88.300781 
L 154.254688 88.300781 
L 173.784688 88.300781 
L 193.314687 88.300781 
L 212.844688 88.300781 
L 232.374687 88.300781 
L 251.904688 88.300781 
L 271.434688 88.300781 
L 290.964687 88.300781 
L 295.847187 92.547656 
L 295.847187 109.535156 
L 295.847187 126.522656 
L 295.847187 143.510156 
L 295.847187 160.497656 
L 295.847187 177.485156 
L 295.847187 194.472656 
L 295.847187 211.460156 
L 295.847187 228.447656 
L 294.602517 245.435156 
L 292.661949 262.422656 
L 290.964687 274.512769 
z
" style="fill:#2db27d;"/>
   </g>
   <g id="PathCollection_6">
    <path clip-path="url(#p466230ff40)" d="M 290.964687 274.512769 
L 292.661949 262.422656 
L 294.602517 245.435156 
L 295.847187 228.447656 
L 295.847187 211.460156 
L 295.847187 194.472656 
L 295.847187 177.485156 
L 295.847187 160.497656 
L 295.847187 143.510156 
L 295.847187 126.522656 
L 295.847187 109.535156 
L 295.847187 92.547656 
L 290.964687 88.300781 
L 271.434688 88.300781 
L 251.904688 88.300781 
L 232.374687 88.300781 
L 212.844688 88.300781 
L 193.314687 88.300781 
L 173.784688 88.300781 
L 154.254688 88.300781 
L 134.724688 88.300781 
L 115.194687 89.383415 
L 95.664688 91.071352 
L 81.765061 92.547656 
L 95.664687 104.637769 
L 101.295061 109.535156 
L 115.194687 121.625269 
L 120.825061 126.522656 
L 134.724687 138.612769 
L 140.355061 143.510156 
L 154.254688 155.600269 
L 159.885061 160.497656 
L 173.784688 172.587769 
L 179.415061 177.485156 
L 193.314687 189.575269 
L 198.945061 194.472656 
L 212.844688 206.562769 
L 218.475061 211.460156 
L 232.374687 223.550269 
L 238.005061 228.447656 
L 251.904688 240.537769 
L 257.535061 245.435156 
L 271.434688 257.525269 
L 277.065061 262.422656 
z
M 286.743103 245.435156 
L 271.434688 232.119656 
L 267.213103 228.447656 
L 251.904688 215.132156 
L 247.683103 211.460156 
L 232.374687 198.144656 
L 228.153103 194.472656 
L 212.844688 181.157156 
L 208.623103 177.485156 
L 193.314687 164.169656 
L 189.093103 160.497656 
L 173.784688 147.182156 
L 169.563103 143.510156 
L 154.254687 130.194656 
L 150.033103 126.522656 
L 134.724688 113.207156 
L 130.503103 109.535156 
L 115.194687 96.219656 
L 110.973103 92.547656 
L 115.194687 92.148067 
L 134.724688 90.848906 
L 154.254687 90.848906 
L 173.784688 90.848906 
L 193.314687 90.848906 
L 212.844688 90.848906 
L 232.374687 90.848906 
L 251.904688 90.848906 
L 271.434688 90.848906 
L 290.964687 90.848906 
L 292.917688 92.547656 
L 292.917688 109.535156 
L 292.917688 126.522656 
L 292.917688 143.510156 
L 292.917688 160.497656 
L 292.917688 177.485156 
L 292.917688 194.472656 
L 292.917688 211.460156 
L 292.917688 228.447656 
L 291.424082 245.435156 
L 290.964687 249.107156 
z
" style="fill:#73d056;"/>
   </g>
   <g id="PathCollection_7">
    <path clip-path="url(#p466230ff40)" d="M 290.964687 249.107156 
L 291.424082 245.435156 
L 292.917688 228.447656 
L 292.917688 211.460156 
L 292.917688 194.472656 
L 292.917688 177.485156 
L 292.917688 160.497656 
L 292.917688 143.510156 
L 292.917688 126.522656 
L 292.917688 109.535156 
L 292.917688 92.547656 
L 290.964687 90.848906 
L 271.434688 90.848906 
L 251.904688 90.848906 
L 232.374687 90.848906 
L 212.844688 90.848906 
L 193.314687 90.848906 
L 173.784688 90.848906 
L 154.254687 90.848906 
L 134.724688 90.848906 
L 115.194687 92.148067 
L 110.973103 92.547656 
L 115.194687 96.219656 
L 130.503103 109.535156 
L 134.724688 113.207156 
L 150.033103 126.522656 
L 154.254688 130.194656 
L 169.563103 143.510156 
L 173.784688 147.182156 
L 189.093103 160.497656 
L 193.314687 164.169656 
L 208.623103 177.485156 
L 212.844688 181.157156 
L 228.153103 194.472656 
L 232.374687 198.144656 
L 247.683103 211.460156 
L 251.904688 215.132156 
L 267.213103 228.447656 
L 271.434688 232.119656 
L 286.743103 245.435156 
z
" style="fill:#d0e11c;"/>
   </g>
   <g id="matplotlib.axis_1">
    <g id="xtick_1">
     <g id="line2d_1">
      <defs>
       <path d="M 0 0 
L 0 3.5 
" id="m84ed2bc30d" style="stroke:#000000;stroke-width:0.8;"/>
      </defs>
      <g>
       <use style="stroke:#000000;stroke-width:0.8;" x="93.87274" xlink:href="#m84ed2bc30d" y="296.397656"/>
      </g>
     </g>
     <g id="text_1">
      <!-- 1.4 -->
      <g transform="translate(81.945396 314.795312)scale(0.15 -0.15)">
       <defs>
        <path d="M 12.40625 8.296875 
L 28.515625 8.296875 
L 28.515625 63.921875 
L 10.984375 60.40625 
L 10.984375 69.390625 
L 28.421875 72.90625 
L 38.28125 72.90625 
L 38.28125 8.296875 
L 54.390625 8.296875 
L 54.390625 0 
L 12.40625 0 
z
" id="DejaVuSans-49"/>
        <path d="M 10.6875 12.40625 
L 21 12.40625 
L 21 0 
L 10.6875 0 
z
" id="DejaVuSans-46"/>
        <path d="M 37.796875 64.3125 
L 12.890625 25.390625 
L 37.796875 25.390625 
z
M 35.203125 72.90625 
L 47.609375 72.90625 
L 47.609375 25.390625 
L 58.015625 25.390625 
L 58.015625 17.1875 
L 47.609375 17.1875 
L 47.609375 0 
L 37.796875 0 
L 37.796875 17.1875 
L 4.890625 17.1875 
L 4.890625 26.703125 
z
" id="DejaVuSans-52"/>
       </defs>
       <use xlink:href="#DejaVuSans-49"/>
       <use x="63.623047" xlink:href="#DejaVuSans-46"/>
       <use x="95.410156" xlink:href="#DejaVuSans-52"/>
      </g>
     </g>
    </g>
    <g id="xtick_2">
     <g id="line2d_2">
      <g>
       <use style="stroke:#000000;stroke-width:0.8;" x="132.816797" xlink:href="#m84ed2bc30d" y="296.397656"/>
      </g>
     </g>
     <g id="text_2">
      <!-- 1.6 -->
      <g transform="translate(120.889453 314.795312)scale(0.15 -0.15)">
       <defs>
        <path d="M 33.015625 40.375 
Q 26.375 40.375 22.484375 35.828125 
Q 18.609375 31.296875 18.609375 23.390625 
Q 18.609375 15.53125 22.484375 10.953125 
Q 26.375 6.390625 33.015625 6.390625 
Q 39.65625 6.390625 43.53125 10.953125 
Q 47.40625 15.53125 47.40625 23.390625 
Q 47.40625 31.296875 43.53125 35.828125 
Q 39.65625 40.375 33.015625 40.375 
z
M 52.59375 71.296875 
L 52.59375 62.3125 
Q 48.875 64.0625 45.09375 64.984375 
Q 41.3125 65.921875 37.59375 65.921875 
Q 27.828125 65.921875 22.671875 59.328125 
Q 17.53125 52.734375 16.796875 39.40625 
Q 19.671875 43.65625 24.015625 45.921875 
Q 28.375 48.1875 33.59375 48.1875 
Q 44.578125 48.1875 50.953125 41.515625 
Q 57.328125 34.859375 57.328125 23.390625 
Q 57.328125 12.15625 50.6875 5.359375 
Q 44.046875 -1.421875 33.015625 -1.421875 
Q 20.359375 -1.421875 13.671875 8.265625 
Q 6.984375 17.96875 6.984375 36.375 
Q 6.984375 53.65625 15.1875 63.9375 
Q 23.390625 74.21875 37.203125 74.21875 
Q 40.921875 74.21875 44.703125 73.484375 
Q 48.484375 72.75 52.59375 71.296875 
z
" id="DejaVuSans-54"/>
       </defs>
       <use xlink:href="#DejaVuSans-49"/>
       <use x="63.623047" xlink:href="#DejaVuSans-46"/>
       <use x="95.410156" xlink:href="#DejaVuSans-54"/>
      </g>
     </g>
    </g>
    <g id="xtick_3">
     <g id="line2d_3">
      <g>
       <use style="stroke:#000000;stroke-width:0.8;" x="171.760853" xlink:href="#m84ed2bc30d" y="296.397656"/>
      </g>
     </g>
     <g id="text_3">
      <!-- 1.8 -->
      <g transform="translate(159.833509 314.795312)scale(0.15 -0.15)">
       <defs>
        <path d="M 31.78125 34.625 
Q 24.75 34.625 20.71875 30.859375 
Q 16.703125 27.09375 16.703125 20.515625 
Q 16.703125 13.921875 20.71875 10.15625 
Q 24.75 6.390625 31.78125 6.390625 
Q 38.8125 6.390625 42.859375 10.171875 
Q 46.921875 13.96875 46.921875 20.515625 
Q 46.921875 27.09375 42.890625 30.859375 
Q 38.875 34.625 31.78125 34.625 
z
M 21.921875 38.8125 
Q 15.578125 40.375 12.03125 44.71875 
Q 8.5 49.078125 8.5 55.328125 
Q 8.5 64.0625 14.71875 69.140625 
Q 20.953125 74.21875 31.78125 74.21875 
Q 42.671875 74.21875 48.875 69.140625 
Q 55.078125 64.0625 55.078125 55.328125 
Q 55.078125 49.078125 51.53125 44.71875 
Q 48 40.375 41.703125 38.8125 
Q 48.828125 37.15625 52.796875 32.3125 
Q 56.78125 27.484375 56.78125 20.515625 
Q 56.78125 9.90625 50.3125 4.234375 
Q 43.84375 -1.421875 31.78125 -1.421875 
Q 19.734375 -1.421875 13.25 4.234375 
Q 6.78125 9.90625 6.78125 20.515625 
Q 6.78125 27.484375 10.78125 32.3125 
Q 14.796875 37.15625 21.921875 38.8125 
z
M 18.3125 54.390625 
Q 18.3125 48.734375 21.84375 45.5625 
Q 25.390625 42.390625 31.78125 42.390625 
Q 38.140625 42.390625 41.71875 45.5625 
Q 45.3125 48.734375 45.3125 54.390625 
Q 45.3125 60.0625 41.71875 63.234375 
Q 38.140625 66.40625 31.78125 66.40625 
Q 25.390625 66.40625 21.84375 63.234375 
Q 18.3125 60.0625 18.3125 54.390625 
z
" id="DejaVuSans-56"/>
       </defs>
       <use xlink:href="#DejaVuSans-49"/>
       <use x="63.623047" xlink:href="#DejaVuSans-46"/>
       <use x="95.410156" xlink:href="#DejaVuSans-56"/>
      </g>
     </g>
    </g>
    <g id="xtick_4">
     <g id="line2d_4">
      <g>
       <use style="stroke:#000000;stroke-width:0.8;" x="210.70491" xlink:href="#m84ed2bc30d" y="296.397656"/>
      </g>
     </g>
     <g id="text_4">
      <!-- 2.0 -->
      <g transform="translate(198.777566 314.795312)scale(0.15 -0.15)">
       <defs>
        <path d="M 19.1875 8.296875 
L 53.609375 8.296875 
L 53.609375 0 
L 7.328125 0 
L 7.328125 8.296875 
Q 12.9375 14.109375 22.625 23.890625 
Q 32.328125 33.6875 34.8125 36.53125 
Q 39.546875 41.84375 41.421875 45.53125 
Q 43.3125 49.21875 43.3125 52.78125 
Q 43.3125 58.59375 39.234375 62.25 
Q 35.15625 65.921875 28.609375 65.921875 
Q 23.96875 65.921875 18.8125 64.3125 
Q 13.671875 62.703125 7.8125 59.421875 
L 7.8125 69.390625 
Q 13.765625 71.78125 18.9375 73 
Q 24.125 74.21875 28.421875 74.21875 
Q 39.75 74.21875 46.484375 68.546875 
Q 53.21875 62.890625 53.21875 53.421875 
Q 53.21875 48.921875 51.53125 44.890625 
Q 49.859375 40.875 45.40625 35.40625 
Q 44.1875 33.984375 37.640625 27.21875 
Q 31.109375 20.453125 19.1875 8.296875 
z
" id="DejaVuSans-50"/>
        <path d="M 31.78125 66.40625 
Q 24.171875 66.40625 20.328125 58.90625 
Q 16.5 51.421875 16.5 36.375 
Q 16.5 21.390625 20.328125 13.890625 
Q 24.171875 6.390625 31.78125 6.390625 
Q 39.453125 6.390625 43.28125 13.890625 
Q 47.125 21.390625 47.125 36.375 
Q 47.125 51.421875 43.28125 58.90625 
Q 39.453125 66.40625 31.78125 66.40625 
z
M 31.78125 74.21875 
Q 44.046875 74.21875 50.515625 64.515625 
Q 56.984375 54.828125 56.984375 36.375 
Q 56.984375 17.96875 50.515625 8.265625 
Q 44.046875 -1.421875 31.78125 -1.421875 
Q 19.53125 -1.421875 13.0625 8.265625 
Q 6.59375 17.96875 6.59375 36.375 
Q 6.59375 54.828125 13.0625 64.515625 
Q 19.53125 74.21875 31.78125 74.21875 
z
" id="DejaVuSans-48"/>
       </defs>
       <use xlink:href="#DejaVuSans-50"/>
       <use x="63.623047" xlink:href="#DejaVuSans-46"/>
       <use x="95.410156" xlink:href="#DejaVuSans-48"/>
      </g>
     </g>
    </g>
    <g id="xtick_5">
     <g id="line2d_5">
      <g>
       <use style="stroke:#000000;stroke-width:0.8;" x="249.648966" xlink:href="#m84ed2bc30d" y="296.397656"/>
      </g>
     </g>
     <g id="text_5">
      <!-- 2.2 -->
      <g transform="translate(237.721622 314.795312)scale(0.15 -0.15)">
       <use xlink:href="#DejaVuSans-50"/>
       <use x="63.623047" xlink:href="#DejaVuSans-46"/>
       <use x="95.410156" xlink:href="#DejaVuSans-50"/>
      </g>
     </g>
    </g>
    <g id="xtick_6">
     <g id="line2d_6">
      <g>
       <use style="stroke:#000000;stroke-width:0.8;" x="288.593023" xlink:href="#m84ed2bc30d" y="296.397656"/>
      </g>
     </g>
     <g id="text_6">
      <!-- 2.4 -->
      <g transform="translate(276.665679 314.795312)scale(0.15 -0.15)">
       <use xlink:href="#DejaVuSans-50"/>
       <use x="63.623047" xlink:href="#DejaVuSans-46"/>
       <use x="95.410156" xlink:href="#DejaVuSans-52"/>
      </g>
     </g>
    </g>
    <g id="xtick_7">
     <g id="line2d_7">
      <g>
       <use style="stroke:#000000;stroke-width:0.8;" x="327.537079" xlink:href="#m84ed2bc30d" y="296.397656"/>
      </g>
     </g>
     <g id="text_7">
      <!-- 2.6 -->
      <g transform="translate(315.609735 314.795312)scale(0.15 -0.15)">
       <use xlink:href="#DejaVuSans-50"/>
       <use x="63.623047" xlink:href="#DejaVuSans-46"/>
       <use x="95.410156" xlink:href="#DejaVuSans-54"/>
      </g>
     </g>
    </g>
    <g id="xtick_8">
     <g id="line2d_8">
      <g>
       <use style="stroke:#000000;stroke-width:0.8;" x="366.481136" xlink:href="#m84ed2bc30d" y="296.397656"/>
      </g>
     </g>
     <g id="text_8">
      <!-- 2.8 -->
      <g transform="translate(354.553792 314.795312)scale(0.15 -0.15)">
       <use xlink:href="#DejaVuSans-50"/>
       <use x="63.623047" xlink:href="#DejaVuSans-46"/>
       <use x="95.410156" xlink:href="#DejaVuSans-56"/>
      </g>
     </g>
    </g>
    <g id="text_9">
     <!-- Spot Price $S_1$ -->
     <g transform="translate(164.244688 333.314844)scale(0.15 -0.15)">
      <defs>
       <path d="M 53.515625 70.515625 
L 53.515625 60.890625 
Q 47.90625 63.578125 42.921875 64.890625 
Q 37.9375 66.21875 33.296875 66.21875 
Q 25.25 66.21875 20.875 63.09375 
Q 16.5 59.96875 16.5 54.203125 
Q 16.5 49.359375 19.40625 46.890625 
Q 22.3125 44.4375 30.421875 42.921875 
L 36.375 41.703125 
Q 47.40625 39.59375 52.65625 34.296875 
Q 57.90625 29 57.90625 20.125 
Q 57.90625 9.515625 50.796875 4.046875 
Q 43.703125 -1.421875 29.984375 -1.421875 
Q 24.8125 -1.421875 18.96875 -0.25 
Q 13.140625 0.921875 6.890625 3.21875 
L 6.890625 13.375 
Q 12.890625 10.015625 18.65625 8.296875 
Q 24.421875 6.59375 29.984375 6.59375 
Q 38.421875 6.59375 43.015625 9.90625 
Q 47.609375 13.234375 47.609375 19.390625 
Q 47.609375 24.75 44.3125 27.78125 
Q 41.015625 30.8125 33.5 32.328125 
L 27.484375 33.5 
Q 16.453125 35.6875 11.515625 40.375 
Q 6.59375 45.0625 6.59375 53.421875 
Q 6.59375 63.09375 13.40625 68.65625 
Q 20.21875 74.21875 32.171875 74.21875 
Q 37.3125 74.21875 42.625 73.28125 
Q 47.953125 72.359375 53.515625 70.515625 
z
" id="DejaVuSans-83"/>
       <path d="M 18.109375 8.203125 
L 18.109375 -20.796875 
L 9.078125 -20.796875 
L 9.078125 54.6875 
L 18.109375 54.6875 
L 18.109375 46.390625 
Q 20.953125 51.265625 25.265625 53.625 
Q 29.59375 56 35.59375 56 
Q 45.5625 56 51.78125 48.09375 
Q 58.015625 40.1875 58.015625 27.296875 
Q 58.015625 14.40625 51.78125 6.484375 
Q 45.5625 -1.421875 35.59375 -1.421875 
Q 29.59375 -1.421875 25.265625 0.953125 
Q 20.953125 3.328125 18.109375 8.203125 
z
M 48.6875 27.296875 
Q 48.6875 37.203125 44.609375 42.84375 
Q 40.53125 48.484375 33.40625 48.484375 
Q 26.265625 48.484375 22.1875 42.84375 
Q 18.109375 37.203125 18.109375 27.296875 
Q 18.109375 17.390625 22.1875 11.75 
Q 26.265625 6.109375 33.40625 6.109375 
Q 40.53125 6.109375 44.609375 11.75 
Q 48.6875 17.390625 48.6875 27.296875 
z
" id="DejaVuSans-112"/>
       <path d="M 30.609375 48.390625 
Q 23.390625 48.390625 19.1875 42.75 
Q 14.984375 37.109375 14.984375 27.296875 
Q 14.984375 17.484375 19.15625 11.84375 
Q 23.34375 6.203125 30.609375 6.203125 
Q 37.796875 6.203125 41.984375 11.859375 
Q 46.1875 17.53125 46.1875 27.296875 
Q 46.1875 37.015625 41.984375 42.703125 
Q 37.796875 48.390625 30.609375 48.390625 
z
M 30.609375 56 
Q 42.328125 56 49.015625 48.375 
Q 55.71875 40.765625 55.71875 27.296875 
Q 55.71875 13.875 49.015625 6.21875 
Q 42.328125 -1.421875 30.609375 -1.421875 
Q 18.84375 -1.421875 12.171875 6.21875 
Q 5.515625 13.875 5.515625 27.296875 
Q 5.515625 40.765625 12.171875 48.375 
Q 18.84375 56 30.609375 56 
z
" id="DejaVuSans-111"/>
       <path d="M 18.3125 70.21875 
L 18.3125 54.6875 
L 36.8125 54.6875 
L 36.8125 47.703125 
L 18.3125 47.703125 
L 18.3125 18.015625 
Q 18.3125 11.328125 20.140625 9.421875 
Q 21.96875 7.515625 27.59375 7.515625 
L 36.8125 7.515625 
L 36.8125 0 
L 27.59375 0 
Q 17.1875 0 13.234375 3.875 
Q 9.28125 7.765625 9.28125 18.015625 
L 9.28125 47.703125 
L 2.6875 47.703125 
L 2.6875 54.6875 
L 9.28125 54.6875 
L 9.28125 70.21875 
z
" id="DejaVuSans-116"/>
       <path id="DejaVuSans-32"/>
       <path d="M 19.671875 64.796875 
L 19.671875 37.40625 
L 32.078125 37.40625 
Q 38.96875 37.40625 42.71875 40.96875 
Q 46.484375 44.53125 46.484375 51.125 
Q 46.484375 57.671875 42.71875 61.234375 
Q 38.96875 64.796875 32.078125 64.796875 
z
M 9.8125 72.90625 
L 32.078125 72.90625 
Q 44.34375 72.90625 50.609375 67.359375 
Q 56.890625 61.8125 56.890625 51.125 
Q 56.890625 40.328125 50.609375 34.8125 
Q 44.34375 29.296875 32.078125 29.296875 
L 19.671875 29.296875 
L 19.671875 0 
L 9.8125 0 
z
" id="DejaVuSans-80"/>
       <path d="M 41.109375 46.296875 
Q 39.59375 47.171875 37.8125 47.578125 
Q 36.03125 48 33.890625 48 
Q 26.265625 48 22.1875 43.046875 
Q 18.109375 38.09375 18.109375 28.8125 
L 18.109375 0 
L 9.078125 0 
L 9.078125 54.6875 
L 18.109375 54.6875 
L 18.109375 46.1875 
Q 20.953125 51.171875 25.484375 53.578125 
Q 30.03125 56 36.53125 56 
Q 37.453125 56 38.578125 55.875 
Q 39.703125 55.765625 41.0625 55.515625 
z
" id="DejaVuSans-114"/>
       <path d="M 9.421875 54.6875 
L 18.40625 54.6875 
L 18.40625 0 
L 9.421875 0 
z
M 9.421875 75.984375 
L 18.40625 75.984375 
L 18.40625 64.59375 
L 9.421875 64.59375 
z
" id="DejaVuSans-105"/>
       <path d="M 48.78125 52.59375 
L 48.78125 44.1875 
Q 44.96875 46.296875 41.140625 47.34375 
Q 37.3125 48.390625 33.40625 48.390625 
Q 24.65625 48.390625 19.8125 42.84375 
Q 14.984375 37.3125 14.984375 27.296875 
Q 14.984375 17.28125 19.8125 11.734375 
Q 24.65625 6.203125 33.40625 6.203125 
Q 37.3125 6.203125 41.140625 7.25 
Q 44.96875 8.296875 48.78125 10.40625 
L 48.78125 2.09375 
Q 45.015625 0.34375 40.984375 -0.53125 
Q 36.96875 -1.421875 32.421875 -1.421875 
Q 20.0625 -1.421875 12.78125 6.34375 
Q 5.515625 14.109375 5.515625 27.296875 
Q 5.515625 40.671875 12.859375 48.328125 
Q 20.21875 56 33.015625 56 
Q 37.15625 56 41.109375 55.140625 
Q 45.0625 54.296875 48.78125 52.59375 
z
" id="DejaVuSans-99"/>
       <path d="M 56.203125 29.59375 
L 56.203125 25.203125 
L 14.890625 25.203125 
Q 15.484375 15.921875 20.484375 11.0625 
Q 25.484375 6.203125 34.421875 6.203125 
Q 39.59375 6.203125 44.453125 7.46875 
Q 49.3125 8.734375 54.109375 11.28125 
L 54.109375 2.78125 
Q 49.265625 0.734375 44.1875 -0.34375 
Q 39.109375 -1.421875 33.890625 -1.421875 
Q 20.796875 -1.421875 13.15625 6.1875 
Q 5.515625 13.8125 5.515625 26.8125 
Q 5.515625 40.234375 12.765625 48.109375 
Q 20.015625 56 32.328125 56 
Q 43.359375 56 49.78125 48.890625 
Q 56.203125 41.796875 56.203125 29.59375 
z
M 47.21875 32.234375 
Q 47.125 39.59375 43.09375 43.984375 
Q 39.0625 48.390625 32.421875 48.390625 
Q 24.90625 48.390625 20.390625 44.140625 
Q 15.875 39.890625 15.1875 32.171875 
z
" id="DejaVuSans-101"/>
       <path d="M 60.296875 70.515625 
L 58.40625 60.890625 
Q 53.46875 63.53125 48.609375 64.875 
Q 43.75 66.21875 39.203125 66.21875 
Q 30.375 66.21875 25.140625 62.359375 
Q 19.921875 58.5 19.921875 52.09375 
Q 19.921875 48.578125 21.84375 46.703125 
Q 23.78125 44.828125 31.78125 42.671875 
L 37.703125 41.21875 
Q 47.703125 38.625 51.609375 34.640625 
Q 55.515625 30.671875 55.515625 23.484375 
Q 55.515625 12.453125 46.84375 5.515625 
Q 38.1875 -1.421875 24.03125 -1.421875 
Q 18.21875 -1.421875 12.359375 -0.265625 
Q 6.5 0.875 0.59375 3.21875 
L 2.59375 13.375 
Q 8.015625 10.015625 13.453125 8.296875 
Q 18.890625 6.59375 24.3125 6.59375 
Q 33.546875 6.59375 39.109375 10.6875 
Q 44.671875 14.796875 44.671875 21.390625 
Q 44.671875 25.78125 42.453125 28.046875 
Q 40.234375 30.328125 32.90625 32.171875 
L 27 33.6875 
Q 16.890625 36.328125 13.203125 39.765625 
Q 9.515625 43.21875 9.515625 49.421875 
Q 9.515625 60.296875 17.890625 67.25 
Q 26.265625 74.21875 39.703125 74.21875 
Q 44.921875 74.21875 50.046875 73.28125 
Q 55.171875 72.359375 60.296875 70.515625 
z
" id="DejaVuSans-Oblique-83"/>
      </defs>
      <use transform="translate(0 0.015625)" xlink:href="#DejaVuSans-83"/>
      <use transform="translate(63.476562 0.015625)" xlink:href="#DejaVuSans-112"/>
      <use transform="translate(126.953125 0.015625)" xlink:href="#DejaVuSans-111"/>
      <use transform="translate(188.134766 0.015625)" xlink:href="#DejaVuSans-116"/>
      <use transform="translate(227.34375 0.015625)" xlink:href="#DejaVuSans-32"/>
      <use transform="translate(259.130859 0.015625)" xlink:href="#DejaVuSans-80"/>
      <use transform="translate(319.433594 0.015625)" xlink:href="#DejaVuSans-114"/>
      <use transform="translate(360.546875 0.015625)" xlink:href="#DejaVuSans-105"/>
      <use transform="translate(388.330078 0.015625)" xlink:href="#DejaVuSans-99"/>
      <use transform="translate(443.310547 0.015625)" xlink:href="#DejaVuSans-101"/>
      <use transform="translate(504.833984 0.015625)" xlink:href="#DejaVuSans-32"/>
      <use transform="translate(536.621094 0.015625)" xlink:href="#DejaVuSans-Oblique-83"/>
      <use transform="translate(600.097656 -16.390625)scale(0.7)" xlink:href="#DejaVuSans-49"/>
     </g>
    </g>
   </g>
   <g id="matplotlib.axis_2">
    <g id="ytick_1">
     <g id="line2d_9">
      <defs>
       <path d="M 0 0 
L -3.5 0 
" id="m7762c7ab2d" style="stroke:#000000;stroke-width:0.8;"/>
      </defs>
      <g>
       <use style="stroke:#000000;stroke-width:0.8;" x="56.604687" xlink:href="#m7762c7ab2d" y="263.98132"/>
      </g>
     </g>
     <g id="text_10">
      <!-- 1.4 -->
      <g transform="translate(25.75 269.680148)scale(0.15 -0.15)">
       <use xlink:href="#DejaVuSans-49"/>
       <use x="63.623047" xlink:href="#DejaVuSans-46"/>
       <use x="95.410156" xlink:href="#DejaVuSans-52"/>
      </g>
     </g>
    </g>
    <g id="ytick_2">
     <g id="line2d_10">
      <g>
       <use style="stroke:#000000;stroke-width:0.8;" x="56.604687" xlink:href="#m7762c7ab2d" y="230.10717"/>
      </g>
     </g>
     <g id="text_11">
      <!-- 1.6 -->
      <g transform="translate(25.75 235.805998)scale(0.15 -0.15)">
       <use xlink:href="#DejaVuSans-49"/>
       <use x="63.623047" xlink:href="#DejaVuSans-46"/>
       <use x="95.410156" xlink:href="#DejaVuSans-54"/>
      </g>
     </g>
    </g>
    <g id="ytick_3">
     <g id="line2d_11">
      <g>
       <use style="stroke:#000000;stroke-width:0.8;" x="56.604687" xlink:href="#m7762c7ab2d" y="196.233019"/>
      </g>
     </g>
     <g id="text_12">
      <!-- 1.8 -->
      <g transform="translate(25.75 201.931847)scale(0.15 -0.15)">
       <use xlink:href="#DejaVuSans-49"/>
       <use x="63.623047" xlink:href="#DejaVuSans-46"/>
       <use x="95.410156" xlink:href="#DejaVuSans-56"/>
      </g>
     </g>
    </g>
    <g id="ytick_4">
     <g id="line2d_12">
      <g>
       <use style="stroke:#000000;stroke-width:0.8;" x="56.604687" xlink:href="#m7762c7ab2d" y="162.358869"/>
      </g>
     </g>
     <g id="text_13">
      <!-- 2.0 -->
      <g transform="translate(25.75 168.057697)scale(0.15 -0.15)">
       <use xlink:href="#DejaVuSans-50"/>
       <use x="63.623047" xlink:href="#DejaVuSans-46"/>
       <use x="95.410156" xlink:href="#DejaVuSans-48"/>
      </g>
     </g>
    </g>
    <g id="ytick_5">
     <g id="line2d_13">
      <g>
       <use style="stroke:#000000;stroke-width:0.8;" x="56.604687" xlink:href="#m7762c7ab2d" y="128.484718"/>
      </g>
     </g>
     <g id="text_14">
      <!-- 2.2 -->
      <g transform="translate(25.75 134.183546)scale(0.15 -0.15)">
       <use xlink:href="#DejaVuSans-50"/>
       <use x="63.623047" xlink:href="#DejaVuSans-46"/>
       <use x="95.410156" xlink:href="#DejaVuSans-50"/>
      </g>
     </g>
    </g>
    <g id="ytick_6">
     <g id="line2d_14">
      <g>
       <use style="stroke:#000000;stroke-width:0.8;" x="56.604687" xlink:href="#m7762c7ab2d" y="94.610568"/>
      </g>
     </g>
     <g id="text_15">
      <!-- 2.4 -->
      <g transform="translate(25.75 100.309396)scale(0.15 -0.15)">
       <use xlink:href="#DejaVuSans-50"/>
       <use x="63.623047" xlink:href="#DejaVuSans-46"/>
       <use x="95.410156" xlink:href="#DejaVuSans-52"/>
      </g>
     </g>
    </g>
    <g id="ytick_7">
     <g id="line2d_15">
      <g>
       <use style="stroke:#000000;stroke-width:0.8;" x="56.604687" xlink:href="#m7762c7ab2d" y="60.736417"/>
      </g>
     </g>
     <g id="text_16">
      <!-- 2.6 -->
      <g transform="translate(25.75 66.435245)scale(0.15 -0.15)">
       <use xlink:href="#DejaVuSans-50"/>
       <use x="63.623047" xlink:href="#DejaVuSans-46"/>
       <use x="95.410156" xlink:href="#DejaVuSans-54"/>
      </g>
     </g>
    </g>
    <g id="ytick_8">
     <g id="line2d_16">
      <g>
       <use style="stroke:#000000;stroke-width:0.8;" x="56.604687" xlink:href="#m7762c7ab2d" y="26.862267"/>
      </g>
     </g>
     <g id="text_17">
      <!-- 2.8 -->
      <g transform="translate(25.75 32.561095)scale(0.15 -0.15)">
       <use xlink:href="#DejaVuSans-50"/>
       <use x="63.623047" xlink:href="#DejaVuSans-46"/>
       <use x="95.410156" xlink:href="#DejaVuSans-56"/>
      </g>
     </g>
    </g>
    <g id="text_18">
     <!-- Spot Price $S_2$ -->
     <g transform="translate(18.6 209.097656)rotate(-90)scale(0.15 -0.15)">
      <use transform="translate(0 0.015625)" xlink:href="#DejaVuSans-83"/>
      <use transform="translate(63.476562 0.015625)" xlink:href="#DejaVuSans-112"/>
      <use transform="translate(126.953125 0.015625)" xlink:href="#DejaVuSans-111"/>
      <use transform="translate(188.134766 0.015625)" xlink:href="#DejaVuSans-116"/>
      <use transform="translate(227.34375 0.015625)" xlink:href="#DejaVuSans-32"/>
      <use transform="translate(259.130859 0.015625)" xlink:href="#DejaVuSans-80"/>
      <use transform="translate(319.433594 0.015625)" xlink:href="#DejaVuSans-114"/>
      <use transform="translate(360.546875 0.015625)" xlink:href="#DejaVuSans-105"/>
      <use transform="translate(388.330078 0.015625)" xlink:href="#DejaVuSans-99"/>
      <use transform="translate(443.310547 0.015625)" xlink:href="#DejaVuSans-101"/>
      <use transform="translate(504.833984 0.015625)" xlink:href="#DejaVuSans-32"/>
      <use transform="translate(536.621094 0.015625)" xlink:href="#DejaVuSans-Oblique-83"/>
      <use transform="translate(600.097656 -16.390625)scale(0.7)" xlink:href="#DejaVuSans-50"/>
     </g>
    </g>
   </g>
   <g id="patch_3">
    <path d="M 56.604687 296.397656 
L 56.604687 24.597656 
" style="fill:none;stroke:#000000;stroke-linecap:square;stroke-linejoin:miter;stroke-width:0.8;"/>
   </g>
   <g id="patch_4">
    <path d="M 369.084688 296.397656 
L 369.084688 24.597656 
" style="fill:none;stroke:#000000;stroke-linecap:square;stroke-linejoin:miter;stroke-width:0.8;"/>
   </g>
   <g id="patch_5">
    <path d="M 56.604687 296.397656 
L 369.084688 296.397656 
" style="fill:none;stroke:#000000;stroke-linecap:square;stroke-linejoin:miter;stroke-width:0.8;"/>
   </g>
   <g id="patch_6">
    <path d="M 56.604687 24.597656 
L 369.084688 24.597656 
" style="fill:none;stroke:#000000;stroke-linecap:square;stroke-linejoin:miter;stroke-width:0.8;"/>
   </g>
   <g id="text_19">
    <!-- Payoff Function -->
    <g transform="translate(155.474375 18.597656)scale(0.15 -0.15)">
     <defs>
      <path d="M 34.28125 27.484375 
Q 23.390625 27.484375 19.1875 25 
Q 14.984375 22.515625 14.984375 16.5 
Q 14.984375 11.71875 18.140625 8.90625 
Q 21.296875 6.109375 26.703125 6.109375 
Q 34.1875 6.109375 38.703125 11.40625 
Q 43.21875 16.703125 43.21875 25.484375 
L 43.21875 27.484375 
z
M 52.203125 31.203125 
L 52.203125 0 
L 43.21875 0 
L 43.21875 8.296875 
Q 40.140625 3.328125 35.546875 0.953125 
Q 30.953125 -1.421875 24.3125 -1.421875 
Q 15.921875 -1.421875 10.953125 3.296875 
Q 6 8.015625 6 15.921875 
Q 6 25.140625 12.171875 29.828125 
Q 18.359375 34.515625 30.609375 34.515625 
L 43.21875 34.515625 
L 43.21875 35.40625 
Q 43.21875 41.609375 39.140625 45 
Q 35.0625 48.390625 27.6875 48.390625 
Q 23 48.390625 18.546875 47.265625 
Q 14.109375 46.140625 10.015625 43.890625 
L 10.015625 52.203125 
Q 14.9375 54.109375 19.578125 55.046875 
Q 24.21875 56 28.609375 56 
Q 40.484375 56 46.34375 49.84375 
Q 52.203125 43.703125 52.203125 31.203125 
z
" id="DejaVuSans-97"/>
      <path d="M 32.171875 -5.078125 
Q 28.375 -14.84375 24.75 -17.8125 
Q 21.140625 -20.796875 15.09375 -20.796875 
L 7.90625 -20.796875 
L 7.90625 -13.28125 
L 13.1875 -13.28125 
Q 16.890625 -13.28125 18.9375 -11.515625 
Q 21 -9.765625 23.484375 -3.21875 
L 25.09375 0.875 
L 2.984375 54.6875 
L 12.5 54.6875 
L 29.59375 11.921875 
L 46.6875 54.6875 
L 56.203125 54.6875 
z
" id="DejaVuSans-121"/>
      <path d="M 37.109375 75.984375 
L 37.109375 68.5 
L 28.515625 68.5 
Q 23.6875 68.5 21.796875 66.546875 
Q 19.921875 64.59375 19.921875 59.515625 
L 19.921875 54.6875 
L 34.71875 54.6875 
L 34.71875 47.703125 
L 19.921875 47.703125 
L 19.921875 0 
L 10.890625 0 
L 10.890625 47.703125 
L 2.296875 47.703125 
L 2.296875 54.6875 
L 10.890625 54.6875 
L 10.890625 58.5 
Q 10.890625 67.625 15.140625 71.796875 
Q 19.390625 75.984375 28.609375 75.984375 
z
" id="DejaVuSans-102"/>
      <path d="M 9.8125 72.90625 
L 51.703125 72.90625 
L 51.703125 64.59375 
L 19.671875 64.59375 
L 19.671875 43.109375 
L 48.578125 43.109375 
L 48.578125 34.8125 
L 19.671875 34.8125 
L 19.671875 0 
L 9.8125 0 
z
" id="DejaVuSans-70"/>
      <path d="M 8.5 21.578125 
L 8.5 54.6875 
L 17.484375 54.6875 
L 17.484375 21.921875 
Q 17.484375 14.15625 20.5 10.265625 
Q 23.53125 6.390625 29.59375 6.390625 
Q 36.859375 6.390625 41.078125 11.03125 
Q 45.3125 15.671875 45.3125 23.6875 
L 45.3125 54.6875 
L 54.296875 54.6875 
L 54.296875 0 
L 45.3125 0 
L 45.3125 8.40625 
Q 42.046875 3.421875 37.71875 1 
Q 33.40625 -1.421875 27.6875 -1.421875 
Q 18.265625 -1.421875 13.375 4.4375 
Q 8.5 10.296875 8.5 21.578125 
z
M 31.109375 56 
z
" id="DejaVuSans-117"/>
      <path d="M 54.890625 33.015625 
L 54.890625 0 
L 45.90625 0 
L 45.90625 32.71875 
Q 45.90625 40.484375 42.875 44.328125 
Q 39.84375 48.1875 33.796875 48.1875 
Q 26.515625 48.1875 22.3125 43.546875 
Q 18.109375 38.921875 18.109375 30.90625 
L 18.109375 0 
L 9.078125 0 
L 9.078125 54.6875 
L 18.109375 54.6875 
L 18.109375 46.1875 
Q 21.34375 51.125 25.703125 53.5625 
Q 30.078125 56 35.796875 56 
Q 45.21875 56 50.046875 50.171875 
Q 54.890625 44.34375 54.890625 33.015625 
z
" id="DejaVuSans-110"/>
     </defs>
     <use xlink:href="#DejaVuSans-80"/>
     <use x="55.802734" xlink:href="#DejaVuSans-97"/>
     <use x="117.082031" xlink:href="#DejaVuSans-121"/>
     <use x="176.261719" xlink:href="#DejaVuSans-111"/>
     <use x="237.443359" xlink:href="#DejaVuSans-102"/>
     <use x="272.648438" xlink:href="#DejaVuSans-102"/>
     <use x="307.853516" xlink:href="#DejaVuSans-32"/>
     <use x="339.640625" xlink:href="#DejaVuSans-70"/>
     <use x="391.660156" xlink:href="#DejaVuSans-117"/>
     <use x="455.039062" xlink:href="#DejaVuSans-110"/>
     <use x="518.417969" xlink:href="#DejaVuSans-99"/>
     <use x="573.398438" xlink:href="#DejaVuSans-116"/>
     <use x="612.607422" xlink:href="#DejaVuSans-105"/>
     <use x="640.390625" xlink:href="#DejaVuSans-111"/>
     <use x="701.572266" xlink:href="#DejaVuSans-110"/>
    </g>
   </g>
  </g>
  <g id="axes_2">
   <g id="patch_7">
    <path clip-path="url(#pb90322a97f)" d="M 388.614688 296.397656 
L 388.614688 257.569085 
L 388.614688 63.426228 
L 388.614688 24.597656 
L 402.204688 24.597656 
L 402.204688 63.426228 
L 402.204688 257.569085 
L 402.204688 296.397656 
z
" style="fill:#ffffff;stroke:#ffffff;stroke-linejoin:miter;stroke-width:0.01;"/>
   </g>
   <g id="QuadMesh_1">
    <path clip-path="url(#pb90322a97f)" d="M 388.614688 296.397656 
L 402.204688 296.397656 
L 402.204688 257.569085 
L 388.614688 257.569085 
L 388.614688 296.397656 
" style="fill:#481b6d;"/>
    <path clip-path="url(#pb90322a97f)" d="M 388.614688 257.569085 
L 402.204688 257.569085 
L 402.204688 218.740513 
L 388.614688 218.740513 
L 388.614688 257.569085 
" style="fill:#3f4788;"/>
    <path clip-path="url(#pb90322a97f)" d="M 388.614688 218.740513 
L 402.204688 218.740513 
L 402.204688 179.911942 
L 388.614688 179.911942 
L 388.614688 218.740513 
" style="fill:#2e6e8e;"/>
    <path clip-path="url(#pb90322a97f)" d="M 388.614688 179.911942 
L 402.204688 179.911942 
L 402.204688 141.083371 
L 388.614688 141.083371 
L 388.614688 179.911942 
" style="fill:#21918c;"/>
    <path clip-path="url(#pb90322a97f)" d="M 388.614688 141.083371 
L 402.204688 141.083371 
L 402.204688 102.254799 
L 388.614688 102.254799 
L 388.614688 141.083371 
" style="fill:#2db27d;"/>
    <path clip-path="url(#pb90322a97f)" d="M 388.614688 102.254799 
L 402.204688 102.254799 
L 402.204688 63.426228 
L 388.614688 63.426228 
L 388.614688 102.254799 
" style="fill:#73d056;"/>
    <path clip-path="url(#pb90322a97f)" d="M 388.614688 63.426228 
L 402.204688 63.426228 
L 402.204688 24.597656 
L 388.614688 24.597656 
L 388.614688 63.426228 
" style="fill:#d0e11c;"/>
   </g>
   <g id="matplotlib.axis_3"/>
   <g id="matplotlib.axis_4">
    <g id="ytick_9">
     <g id="line2d_17">
      <defs>
       <path d="M 0 0 
L 3.5 0 
" id="m5bb35695cc" style="stroke:#000000;stroke-width:0.8;"/>
      </defs>
      <g>
       <use style="stroke:#000000;stroke-width:0.8;" x="402.204688" xlink:href="#m5bb35695cc" y="296.397656"/>
      </g>
     </g>
     <g id="text_20">
      <!-- 0.00 -->
      <g transform="translate(409.204688 300.196875)scale(0.1 -0.1)">
       <use xlink:href="#DejaVuSans-48"/>
       <use x="63.623047" xlink:href="#DejaVuSans-46"/>
       <use x="95.410156" xlink:href="#DejaVuSans-48"/>
       <use x="159.033203" xlink:href="#DejaVuSans-48"/>
      </g>
     </g>
    </g>
    <g id="ytick_10">
     <g id="line2d_18">
      <g>
       <use style="stroke:#000000;stroke-width:0.8;" x="402.204688" xlink:href="#m5bb35695cc" y="257.569085"/>
      </g>
     </g>
     <g id="text_21">
      <!-- 0.15 -->
      <g transform="translate(409.204688 261.368304)scale(0.1 -0.1)">
       <defs>
        <path d="M 10.796875 72.90625 
L 49.515625 72.90625 
L 49.515625 64.59375 
L 19.828125 64.59375 
L 19.828125 46.734375 
Q 21.96875 47.46875 24.109375 47.828125 
Q 26.265625 48.1875 28.421875 48.1875 
Q 40.625 48.1875 47.75 41.5 
Q 54.890625 34.8125 54.890625 23.390625 
Q 54.890625 11.625 47.5625 5.09375 
Q 40.234375 -1.421875 26.90625 -1.421875 
Q 22.3125 -1.421875 17.546875 -0.640625 
Q 12.796875 0.140625 7.71875 1.703125 
L 7.71875 11.625 
Q 12.109375 9.234375 16.796875 8.0625 
Q 21.484375 6.890625 26.703125 6.890625 
Q 35.15625 6.890625 40.078125 11.328125 
Q 45.015625 15.765625 45.015625 23.390625 
Q 45.015625 31 40.078125 35.4375 
Q 35.15625 39.890625 26.703125 39.890625 
Q 22.75 39.890625 18.8125 39.015625 
Q 14.890625 38.140625 10.796875 36.28125 
z
" id="DejaVuSans-53"/>
       </defs>
       <use xlink:href="#DejaVuSans-48"/>
       <use x="63.623047" xlink:href="#DejaVuSans-46"/>
       <use x="95.410156" xlink:href="#DejaVuSans-49"/>
       <use x="159.033203" xlink:href="#DejaVuSans-53"/>
      </g>
     </g>
    </g>
    <g id="ytick_11">
     <g id="line2d_19">
      <g>
       <use style="stroke:#000000;stroke-width:0.8;" x="402.204688" xlink:href="#m5bb35695cc" y="218.740513"/>
      </g>
     </g>
     <g id="text_22">
      <!-- 0.30 -->
      <g transform="translate(409.204688 222.539732)scale(0.1 -0.1)">
       <defs>
        <path d="M 40.578125 39.3125 
Q 47.65625 37.796875 51.625 33 
Q 55.609375 28.21875 55.609375 21.1875 
Q 55.609375 10.40625 48.1875 4.484375 
Q 40.765625 -1.421875 27.09375 -1.421875 
Q 22.515625 -1.421875 17.65625 -0.515625 
Q 12.796875 0.390625 7.625 2.203125 
L 7.625 11.71875 
Q 11.71875 9.328125 16.59375 8.109375 
Q 21.484375 6.890625 26.8125 6.890625 
Q 36.078125 6.890625 40.9375 10.546875 
Q 45.796875 14.203125 45.796875 21.1875 
Q 45.796875 27.640625 41.28125 31.265625 
Q 36.765625 34.90625 28.71875 34.90625 
L 20.21875 34.90625 
L 20.21875 43.015625 
L 29.109375 43.015625 
Q 36.375 43.015625 40.234375 45.921875 
Q 44.09375 48.828125 44.09375 54.296875 
Q 44.09375 59.90625 40.109375 62.90625 
Q 36.140625 65.921875 28.71875 65.921875 
Q 24.65625 65.921875 20.015625 65.03125 
Q 15.375 64.15625 9.8125 62.3125 
L 9.8125 71.09375 
Q 15.4375 72.65625 20.34375 73.4375 
Q 25.25 74.21875 29.59375 74.21875 
Q 40.828125 74.21875 47.359375 69.109375 
Q 53.90625 64.015625 53.90625 55.328125 
Q 53.90625 49.265625 50.4375 45.09375 
Q 46.96875 40.921875 40.578125 39.3125 
z
" id="DejaVuSans-51"/>
       </defs>
       <use xlink:href="#DejaVuSans-48"/>
       <use x="63.623047" xlink:href="#DejaVuSans-46"/>
       <use x="95.410156" xlink:href="#DejaVuSans-51"/>
       <use x="159.033203" xlink:href="#DejaVuSans-48"/>
      </g>
     </g>
    </g>
    <g id="ytick_12">
     <g id="line2d_20">
      <g>
       <use style="stroke:#000000;stroke-width:0.8;" x="402.204688" xlink:href="#m5bb35695cc" y="179.911942"/>
      </g>
     </g>
     <g id="text_23">
      <!-- 0.45 -->
      <g transform="translate(409.204688 183.711161)scale(0.1 -0.1)">
       <use xlink:href="#DejaVuSans-48"/>
       <use x="63.623047" xlink:href="#DejaVuSans-46"/>
       <use x="95.410156" xlink:href="#DejaVuSans-52"/>
       <use x="159.033203" xlink:href="#DejaVuSans-53"/>
      </g>
     </g>
    </g>
    <g id="ytick_13">
     <g id="line2d_21">
      <g>
       <use style="stroke:#000000;stroke-width:0.8;" x="402.204688" xlink:href="#m5bb35695cc" y="141.083371"/>
      </g>
     </g>
     <g id="text_24">
      <!-- 0.60 -->
      <g transform="translate(409.204688 144.882589)scale(0.1 -0.1)">
       <use xlink:href="#DejaVuSans-48"/>
       <use x="63.623047" xlink:href="#DejaVuSans-46"/>
       <use x="95.410156" xlink:href="#DejaVuSans-54"/>
       <use x="159.033203" xlink:href="#DejaVuSans-48"/>
      </g>
     </g>
    </g>
    <g id="ytick_14">
     <g id="line2d_22">
      <g>
       <use style="stroke:#000000;stroke-width:0.8;" x="402.204688" xlink:href="#m5bb35695cc" y="102.254799"/>
      </g>
     </g>
     <g id="text_25">
      <!-- 0.75 -->
      <g transform="translate(409.204688 106.054018)scale(0.1 -0.1)">
       <defs>
        <path d="M 8.203125 72.90625 
L 55.078125 72.90625 
L 55.078125 68.703125 
L 28.609375 0 
L 18.3125 0 
L 43.21875 64.59375 
L 8.203125 64.59375 
z
" id="DejaVuSans-55"/>
       </defs>
       <use xlink:href="#DejaVuSans-48"/>
       <use x="63.623047" xlink:href="#DejaVuSans-46"/>
       <use x="95.410156" xlink:href="#DejaVuSans-55"/>
       <use x="159.033203" xlink:href="#DejaVuSans-53"/>
      </g>
     </g>
    </g>
    <g id="ytick_15">
     <g id="line2d_23">
      <g>
       <use style="stroke:#000000;stroke-width:0.8;" x="402.204688" xlink:href="#m5bb35695cc" y="63.426228"/>
      </g>
     </g>
     <g id="text_26">
      <!-- 0.90 -->
      <g transform="translate(409.204688 67.225446)scale(0.1 -0.1)">
       <defs>
        <path d="M 10.984375 1.515625 
L 10.984375 10.5 
Q 14.703125 8.734375 18.5 7.8125 
Q 22.3125 6.890625 25.984375 6.890625 
Q 35.75 6.890625 40.890625 13.453125 
Q 46.046875 20.015625 46.78125 33.40625 
Q 43.953125 29.203125 39.59375 26.953125 
Q 35.25 24.703125 29.984375 24.703125 
Q 19.046875 24.703125 12.671875 31.3125 
Q 6.296875 37.9375 6.296875 49.421875 
Q 6.296875 60.640625 12.9375 67.421875 
Q 19.578125 74.21875 30.609375 74.21875 
Q 43.265625 74.21875 49.921875 64.515625 
Q 56.59375 54.828125 56.59375 36.375 
Q 56.59375 19.140625 48.40625 8.859375 
Q 40.234375 -1.421875 26.421875 -1.421875 
Q 22.703125 -1.421875 18.890625 -0.6875 
Q 15.09375 0.046875 10.984375 1.515625 
z
M 30.609375 32.421875 
Q 37.25 32.421875 41.125 36.953125 
Q 45.015625 41.5 45.015625 49.421875 
Q 45.015625 57.28125 41.125 61.84375 
Q 37.25 66.40625 30.609375 66.40625 
Q 23.96875 66.40625 20.09375 61.84375 
Q 16.21875 57.28125 16.21875 49.421875 
Q 16.21875 41.5 20.09375 36.953125 
Q 23.96875 32.421875 30.609375 32.421875 
z
" id="DejaVuSans-57"/>
       </defs>
       <use xlink:href="#DejaVuSans-48"/>
       <use x="63.623047" xlink:href="#DejaVuSans-46"/>
       <use x="95.410156" xlink:href="#DejaVuSans-57"/>
       <use x="159.033203" xlink:href="#DejaVuSans-48"/>
      </g>
     </g>
    </g>
    <g id="ytick_16">
     <g id="line2d_24">
      <g>
       <use style="stroke:#000000;stroke-width:0.8;" x="402.204688" xlink:href="#m5bb35695cc" y="24.597656"/>
      </g>
     </g>
     <g id="text_27">
      <!-- 1.05 -->
      <g transform="translate(409.204688 28.396875)scale(0.1 -0.1)">
       <use xlink:href="#DejaVuSans-49"/>
       <use x="63.623047" xlink:href="#DejaVuSans-46"/>
       <use x="95.410156" xlink:href="#DejaVuSans-48"/>
       <use x="159.033203" xlink:href="#DejaVuSans-53"/>
      </g>
     </g>
    </g>
   </g>
   <g id="patch_8">
    <path d="M 388.614688 296.397656 
L 388.614688 257.569085 
L 388.614688 63.426228 
L 388.614688 24.597656 
L 402.204688 24.597656 
L 402.204688 63.426228 
L 402.204688 257.569085 
L 402.204688 296.397656 
z
" style="fill:none;stroke:#000000;stroke-linejoin:miter;stroke-width:0.8;"/>
   </g>
  </g>
 </g>
 <defs>
  <clipPath id="p466230ff40">
   <rect height="271.8" width="312.48" x="56.604687" y="24.597656"/>
  </clipPath>
  <clipPath id="pb90322a97f">
   <rect height="271.8" width="13.59" x="388.614688" y="24.597656"/>
  </clipPath>
 </defs>
</svg>
