<svg xmlns="http://www.w3.org/2000/svg" xmlns:xlink="http://www.w3.org/1999/xlink" width="201pt" height="260pt" viewBox="0.00 0.00 201.10 260.00">
<g id="graph0" class="graph" transform="scale(1 1) rotate(0) translate(4 256)">
<title>G</title>
<polygon fill="white" stroke="transparent" points="-4,4 -4,-256 197.1,-256 197.1,4 -4,4"/>
<!-- 0 -->
<g id="node1" class="node">
<title>0</title>
<ellipse fill="none" stroke="black" cx="48.1" cy="-126" rx="48.19" ry="18"/>
<text text-anchor="middle" x="48.1" y="-122.3" font-family="Times,serif" font-size="14.00">{'u2/1'}</text>
</g>
<!-- 1 -->
<g id="node2" class="node">
<title>1</title>
<ellipse fill="none" stroke="black" cx="48.1" cy="-18" rx="48.19" ry="18"/>
<text text-anchor="middle" x="48.1" y="-14.3" font-family="Times,serif" font-size="14.00">{'u3/1'}</text>
</g>
<!-- 0&#45;&gt;1 -->
<g id="edge1" class="edge">
<title>0-&gt;1</title>
<path fill="none" stroke="black" d="M48.1,-107.97C48.1,-91.38 48.1,-65.88 48.1,-46.43"/>
<polygon fill="black" stroke="black" points="51.6,-46.34 48.1,-36.34 44.6,-46.34 51.6,-46.34"/>
<text text-anchor="middle" x="120.6" y="-83.6" font-family="Courier,monospace" font-size="8.00">[Parameter(phi), Parameter(lam)]</text>
<text text-anchor="middle" x="120.6" y="-74.6" font-family="Courier,monospace" font-size="8.00">     ┌─────────────────┐</text>
<text text-anchor="middle" x="120.6" y="-65.6" font-family="Courier,monospace" font-size="8.00">q_0: ┤ U3(π/2,phi,lam) ├</text>
<text text-anchor="middle" x="120.6" y="-56.6" font-family="Courier,monospace" font-size="8.00">     └─────────────────┘</text>
</g>
<!-- 2 -->
<g id="node3" class="node">
<title>2</title>
<ellipse fill="none" stroke="black" cx="48.1" cy="-234" rx="42.49" ry="18"/>
<text text-anchor="middle" x="48.1" y="-230.3" font-family="Times,serif" font-size="14.00">{'h/1'}</text>
</g>
<!-- 2&#45;&gt;0 -->
<g id="edge2" class="edge">
<title>2-&gt;0</title>
<path fill="none" stroke="black" d="M48.1,-215.97C48.1,-199.38 48.1,-173.88 48.1,-154.43"/>
<polygon fill="black" stroke="black" points="51.6,-154.34 48.1,-144.34 44.6,-154.34 51.6,-154.34"/>
<text text-anchor="middle" x="84.6" y="-191.6" font-family="Courier,monospace" font-size="8.00">[]</text>
<text text-anchor="middle" x="84.6" y="-182.6" font-family="Courier,monospace" font-size="8.00">     ┌─────────┐</text>
<text text-anchor="middle" x="84.6" y="-173.6" font-family="Courier,monospace" font-size="8.00">q_0: ┤ U2(0,π) ├</text>
<text text-anchor="middle" x="84.6" y="-164.6" font-family="Courier,monospace" font-size="8.00">     └─────────┘</text>
</g>
</g>
</svg>