<?xml version="1.0" encoding="utf-8" standalone="no"?>
<!DOCTYPE svg PUBLIC "-//W3C//DTD SVG 1.1//EN"
  "http://www.w3.org/Graphics/SVG/1.1/DTD/svg11.dtd">
<!-- Created with matplotlib (https://matplotlib.org/) -->
<svg height="214.3844pt" version="1.1" viewBox="0 0 397.938036 214.3844" width="397.938036pt" xmlns="http://www.w3.org/2000/svg" xmlns:xlink="http://www.w3.org/1999/xlink">
 <metadata>
  <rdf:RDF xmlns:cc="http://creativecommons.org/ns#" xmlns:dc="http://purl.org/dc/elements/1.1/" xmlns:rdf="http://www.w3.org/1999/02/22-rdf-syntax-ns#">
   <cc:Work>
    <dc:type rdf:resource="http://purl.org/dc/dcmitype/StillImage"/>
    <dc:date>2021-06-04T17:47:56.682478</dc:date>
    <dc:format>image/svg+xml</dc:format>
    <dc:creator>
     <cc:Agent>
      <dc:title>Matplotlib v3.3.2, https://matplotlib.org/</dc:title>
     </cc:Agent>
    </dc:creator>
   </cc:Work>
  </rdf:RDF>
 </metadata>
 <defs>
  <style type="text/css">*{stroke-linecap:butt;stroke-linejoin:round;}</style>
 </defs>
 <g id="figure_1">
  <g id="patch_1">
   <path d="M 0 214.3844 
L 397.938036 214.3844 
L 397.938036 0 
L 0 0 
z
" style="fill:#ffffff;"/>
  </g>
  <g id="axes_1">
   <g id="patch_2">
    <path clip-path="url(#p82d2896451)" d="M 263.929746 169.573697 
L 275.747006 169.573697 
L 269.838376 178.09576 
z
" style="fill:#778899;"/>
   </g>
   <g id="patch_3">
    <path clip-path="url(#p82d2896451)" d="M 309.380746 169.573697 
L 321.198006 169.573697 
L 315.289376 178.09576 
z
" style="fill:#778899;"/>
   </g>
   <g id="patch_4">
    <path clip-path="url(#p82d2896451)" d="M 354.831746 169.573697 
L 366.649006 169.573697 
L 360.740376 178.09576 
z
" style="fill:#778899;"/>
   </g>
   <g id="line2d_1">
    <path clip-path="url(#p82d2896451)" d="M 63.490836 43.5608 
L 386.192936 43.5608 
" style="fill:none;stroke:#000000;stroke-linecap:square;stroke-width:2;"/>
   </g>
   <g id="line2d_2">
    <path clip-path="url(#p82d2896451)" d="M 63.490836 89.0118 
L 386.192936 89.0118 
" style="fill:none;stroke:#000000;stroke-linecap:square;stroke-width:2;"/>
   </g>
   <g id="line2d_3">
    <path clip-path="url(#p82d2896451)" d="M 63.490836 134.4628 
L 386.192936 134.4628 
" style="fill:none;stroke:#000000;stroke-linecap:square;stroke-width:2;"/>
   </g>
   <g id="line2d_4">
    <path clip-path="url(#p82d2896451)" d="M 63.490836 178.436642 
L 386.192936 178.436642 
" style="fill:none;stroke:#778899;stroke-linecap:square;stroke-width:2;"/>
   </g>
   <g id="line2d_5">
    <path clip-path="url(#p82d2896451)" d="M 63.490836 181.390957 
L 386.192936 181.390957 
" style="fill:none;stroke:#778899;stroke-linecap:square;stroke-width:2;"/>
   </g>
   <g id="patch_5">
    <path clip-path="url(#p82d2896451)" d="M 215.524431 66.2863 
L 233.250321 66.2863 
L 233.250321 20.8353 
L 215.524431 20.8353 
z
" style="fill:#bdbdbd;opacity:0.6;"/>
   </g>
   <g id="patch_6">
    <path clip-path="url(#p82d2896451)" d="M 215.524431 111.7373 
L 233.250321 111.7373 
L 233.250321 66.2863 
L 215.524431 66.2863 
z
" style="fill:#bdbdbd;opacity:0.6;"/>
   </g>
   <g id="patch_7">
    <path clip-path="url(#p82d2896451)" d="M 215.524431 157.1883 
L 233.250321 157.1883 
L 233.250321 111.7373 
L 215.524431 111.7373 
z
" style="fill:#bdbdbd;opacity:0.6;"/>
   </g>
   <g id="line2d_6">
    <path clip-path="url(#p82d2896451)" d="M 133.485376 89.0118 
L 133.485376 43.5608 
" style="fill:none;stroke:#6fa4ff;stroke-linecap:square;stroke-width:2;"/>
   </g>
   <g id="line2d_7">
    <path clip-path="url(#p82d2896451)" d="M 178.936376 134.4628 
L 178.936376 43.5608 
" style="fill:none;stroke:#6fa4ff;stroke-linecap:square;stroke-width:2;"/>
   </g>
   <g id="line2d_8">
    <path clip-path="url(#p82d2896451)" d="M 271.315534 43.5608 
L 271.315534 169.573697 
" style="fill:none;stroke:#778899;stroke-linecap:square;stroke-width:2;"/>
   </g>
   <g id="line2d_9">
    <path clip-path="url(#p82d2896451)" d="M 268.361219 43.5608 
L 268.361219 169.573697 
" style="fill:none;stroke:#778899;stroke-linecap:square;stroke-width:2;"/>
   </g>
   <g id="line2d_10">
    <path clip-path="url(#p82d2896451)" d="M 316.766534 89.0118 
L 316.766534 169.573697 
" style="fill:none;stroke:#778899;stroke-linecap:square;stroke-width:2;"/>
   </g>
   <g id="line2d_11">
    <path clip-path="url(#p82d2896451)" d="M 313.812219 89.0118 
L 313.812219 169.573697 
" style="fill:none;stroke:#778899;stroke-linecap:square;stroke-width:2;"/>
   </g>
   <g id="line2d_12">
    <path clip-path="url(#p82d2896451)" d="M 362.217534 134.4628 
L 362.217534 169.573697 
" style="fill:none;stroke:#778899;stroke-linecap:square;stroke-width:2;"/>
   </g>
   <g id="line2d_13">
    <path clip-path="url(#p82d2896451)" d="M 359.263219 134.4628 
L 359.263219 169.573697 
" style="fill:none;stroke:#778899;stroke-linecap:square;stroke-width:2;"/>
   </g>
   <g id="line2d_14">
    <path clip-path="url(#p82d2896451)" d="M 72.581036 184.4589 
L 77.126136 175.3687 
" style="fill:none;stroke:#778899;stroke-linecap:square;stroke-width:1.5;"/>
   </g>
   <g id="patch_8">
    <path clip-path="url(#p82d2896451)" d="M 73.262801 58.332375 
L 102.805951 58.332375 
L 102.805951 28.789225 
L 73.262801 28.789225 
z
" style="fill:#6fa4ff;stroke:#6fa4ff;stroke-linejoin:miter;stroke-width:1.5;"/>
   </g>
   <g id="patch_9">
    <path clip-path="url(#p82d2896451)" d="M 133.485376 47.992272 
C 134.660616 47.992272 135.78788 47.525345 136.618901 46.694324 
C 137.449921 45.863304 137.916849 44.73604 137.916849 43.5608 
C 137.916849 42.38556 137.449921 41.258296 136.618901 40.427276 
C 135.78788 39.596255 134.660616 39.129327 133.485376 39.129327 
C 132.310136 39.129327 131.182872 39.596255 130.351852 40.427276 
C 129.520832 41.258296 129.053904 42.38556 129.053904 43.5608 
C 129.053904 44.73604 129.520832 45.863304 130.351852 46.694324 
C 131.182872 47.525345 132.310136 47.992272 133.485376 47.992272 
z
" style="fill:#6fa4ff;stroke:#6fa4ff;stroke-linejoin:miter;stroke-width:1.5;"/>
   </g>
   <g id="patch_10">
    <path clip-path="url(#p82d2896451)" d="M 133.485376 99.351902 
C 136.227603 99.351902 138.857885 98.262404 140.796933 96.323357 
C 142.73598 94.384309 143.825479 91.754027 143.825479 89.0118 
C 143.825479 86.269573 142.73598 83.639291 140.796933 81.700243 
C 138.857885 79.761196 136.227603 78.671697 133.485376 78.671697 
C 130.743149 78.671697 128.112867 79.761196 126.17382 81.700243 
C 124.234772 83.639291 123.145274 86.269573 123.145274 89.0118 
C 123.145274 91.754027 124.234772 94.384309 126.17382 96.323357 
C 128.112867 98.262404 130.743149 99.351902 133.485376 99.351902 
z
" style="fill:#6fa4ff;stroke:#6fa4ff;stroke-linejoin:miter;stroke-width:2;"/>
   </g>
   <g id="patch_11">
    <path clip-path="url(#p82d2896451)" d="M 178.936376 47.992272 
C 180.111616 47.992272 181.23888 47.525345 182.069901 46.694324 
C 182.900921 45.863304 183.367849 44.73604 183.367849 43.5608 
C 183.367849 42.38556 182.900921 41.258296 182.069901 40.427276 
C 181.23888 39.596255 180.111616 39.129327 178.936376 39.129327 
C 177.761136 39.129327 176.633872 39.596255 175.802852 40.427276 
C 174.971832 41.258296 174.504904 42.38556 174.504904 43.5608 
C 174.504904 44.73604 174.971832 45.863304 175.802852 46.694324 
C 176.633872 47.525345 177.761136 47.992272 178.936376 47.992272 
z
" style="fill:#6fa4ff;stroke:#6fa4ff;stroke-linejoin:miter;stroke-width:1.5;"/>
   </g>
   <g id="patch_12">
    <path clip-path="url(#p82d2896451)" d="M 178.936376 144.802902 
C 181.678603 144.802902 184.308885 143.713404 186.247933 141.774357 
C 188.18698 139.835309 189.276479 137.205027 189.276479 134.4628 
C 189.276479 131.720573 188.18698 129.090291 186.247933 127.151243 
C 184.308885 125.212196 181.678603 124.122697 178.936376 124.122697 
C 176.194149 124.122697 173.563867 125.212196 171.62482 127.151243 
C 169.685772 129.090291 168.596274 131.720573 168.596274 134.4628 
C 168.596274 137.205027 169.685772 139.835309 171.62482 141.774357 
C 173.563867 143.713404 176.194149 144.802902 178.936376 144.802902 
z
" style="fill:#6fa4ff;stroke:#6fa4ff;stroke-linejoin:miter;stroke-width:2;"/>
   </g>
   <g id="patch_13">
    <path clip-path="url(#p82d2896451)" d="M 255.066801 58.332375 
L 284.609951 58.332375 
L 284.609951 28.789225 
L 255.066801 28.789225 
z
" style="stroke:#000000;stroke-linejoin:miter;stroke-width:1.5;"/>
   </g>
   <g id="patch_14">
    <path clip-path="url(#p82d2896451)" d="M 280.178479 47.992272 
C 280.178479 45.250959 279.088335 42.619118 277.149933 40.680716 
C 275.211531 38.742314 272.57969 37.65217 269.838376 37.65217 
C 267.097062 37.65217 264.465221 38.742314 262.52682 40.680716 
C 260.588418 42.619118 259.498274 45.250959 259.498274 47.992272 
" style="fill:none;stroke:#ffffff;stroke-linejoin:miter;stroke-width:2;"/>
   </g>
   <g id="patch_15">
    <path clip-path="url(#p82d2896451)" d="M 300.517801 103.783375 
L 330.060951 103.783375 
L 330.060951 74.240225 
L 300.517801 74.240225 
z
" style="stroke:#000000;stroke-linejoin:miter;stroke-width:1.5;"/>
   </g>
   <g id="patch_16">
    <path clip-path="url(#p82d2896451)" d="M 325.629479 93.443272 
C 325.629479 90.701959 324.539335 88.070118 322.600933 86.131716 
C 320.662531 84.193314 318.03069 83.10317 315.289376 83.10317 
C 312.548062 83.10317 309.916221 84.193314 307.97782 86.131716 
C 306.039418 88.070118 304.949274 90.701959 304.949274 93.443272 
" style="fill:none;stroke:#ffffff;stroke-linejoin:miter;stroke-width:2;"/>
   </g>
   <g id="patch_17">
    <path clip-path="url(#p82d2896451)" d="M 345.968801 149.234375 
L 375.511951 149.234375 
L 375.511951 119.691225 
L 345.968801 119.691225 
z
" style="stroke:#000000;stroke-linejoin:miter;stroke-width:1.5;"/>
   </g>
   <g id="patch_18">
    <path clip-path="url(#p82d2896451)" d="M 371.080479 138.894272 
C 371.080479 136.152959 369.990335 133.521118 368.051933 131.582716 
C 366.113531 129.644314 363.48169 128.55417 360.740376 128.55417 
C 357.999062 128.55417 355.367221 129.644314 353.42882 131.582716 
C 351.490418 133.521118 350.400274 136.152959 350.400274 138.894272 
" style="fill:none;stroke:#ffffff;stroke-linejoin:miter;stroke-width:2;"/>
   </g>
   <g id="line2d_15">
    <path clip-path="url(#p82d2896451)" d="M 269.838376 47.992272 
L 280.178479 37.65217 
" style="fill:none;stroke:#ffffff;stroke-linecap:square;stroke-width:2;"/>
   </g>
   <g id="line2d_16">
    <path clip-path="url(#p82d2896451)" d="M 315.289376 93.443272 
L 325.629479 83.10317 
" style="fill:none;stroke:#ffffff;stroke-linecap:square;stroke-width:2;"/>
   </g>
   <g id="line2d_17">
    <path clip-path="url(#p82d2896451)" d="M 360.740376 138.894272 
L 371.080479 128.55417 
" style="fill:none;stroke:#ffffff;stroke-linecap:square;stroke-width:2;"/>
   </g>
   <g id="line2d_18">
    <path clip-path="url(#p82d2896451)" d="M 133.485376 94.92043 
L 133.485376 83.10317 
" style="fill:none;stroke:#ffffff;stroke-linecap:square;stroke-width:2;"/>
   </g>
   <g id="line2d_19">
    <path clip-path="url(#p82d2896451)" d="M 127.576746 89.0118 
L 139.394006 89.0118 
" style="fill:none;stroke:#ffffff;stroke-linecap:square;stroke-width:2;"/>
   </g>
   <g id="line2d_20">
    <path clip-path="url(#p82d2896451)" d="M 178.936376 140.37143 
L 178.936376 128.55417 
" style="fill:none;stroke:#ffffff;stroke-linecap:square;stroke-width:2;"/>
   </g>
   <g id="line2d_21">
    <path clip-path="url(#p82d2896451)" d="M 173.027746 134.4628 
L 184.845006 134.4628 
" style="fill:none;stroke:#ffffff;stroke-linecap:square;stroke-width:2;"/>
   </g>
   <g id="line2d_22">
    <path clip-path="url(#p82d2896451)" d="M 224.387376 20.8353 
L 224.387376 66.2863 
" style="fill:none;stroke:#000000;stroke-dasharray:3.7,1.6;stroke-dashoffset:0;"/>
   </g>
   <g id="line2d_23">
    <path clip-path="url(#p82d2896451)" d="M 224.387376 66.2863 
L 224.387376 111.7373 
" style="fill:none;stroke:#000000;stroke-dasharray:3.7,1.6;stroke-dashoffset:0;"/>
   </g>
   <g id="line2d_24">
    <path clip-path="url(#p82d2896451)" d="M 224.387376 111.7373 
L 224.387376 157.1883 
" style="fill:none;stroke:#000000;stroke-dasharray:3.7,1.6;stroke-dashoffset:0;"/>
   </g>
   <g id="text_1">
    <g clip-path="url(#p82d2896451)">
     <!-- H -->
     <g transform="translate(83.146173 47.147987)scale(0.13 -0.13)">
      <defs>
       <path d="M 9.8125 72.90625 
L 19.671875 72.90625 
L 19.671875 43.015625 
L 55.515625 43.015625 
L 55.515625 72.90625 
L 65.375 72.90625 
L 65.375 0 
L 55.515625 0 
L 55.515625 34.71875 
L 19.671875 34.71875 
L 19.671875 0 
L 9.8125 0 
z
" id="DejaVuSans-72"/>
      </defs>
      <use xlink:href="#DejaVuSans-72"/>
     </g>
    </g>
   </g>
   <g id="text_2">
    <g clip-path="url(#p82d2896451)">
     <!-- 0 -->
     <g transform="translate(281.201126 173.205825)scale(0.104 -0.104)">
      <defs>
       <path d="M 31.78125 66.40625 
Q 24.171875 66.40625 20.328125 58.90625 
Q 16.5 51.421875 16.5 36.375 
Q 16.5 21.390625 20.328125 13.890625 
Q 24.171875 6.390625 31.78125 6.390625 
Q 39.453125 6.390625 43.28125 13.890625 
Q 47.125 21.390625 47.125 36.375 
Q 47.125 51.421875 43.28125 58.90625 
Q 39.453125 66.40625 31.78125 66.40625 
z
M 31.78125 74.21875 
Q 44.046875 74.21875 50.515625 64.515625 
Q 56.984375 54.828125 56.984375 36.375 
Q 56.984375 17.96875 50.515625 8.265625 
Q 44.046875 -1.421875 31.78125 -1.421875 
Q 19.53125 -1.421875 13.0625 8.265625 
Q 6.59375 17.96875 6.59375 36.375 
Q 6.59375 54.828125 13.0625 64.515625 
Q 19.53125 74.21875 31.78125 74.21875 
z
" id="DejaVuSans-48"/>
      </defs>
      <use xlink:href="#DejaVuSans-48"/>
     </g>
    </g>
   </g>
   <g id="text_3">
    <g clip-path="url(#p82d2896451)">
     <!-- 1 -->
     <g transform="translate(326.652126 173.205825)scale(0.104 -0.104)">
      <defs>
       <path d="M 12.40625 8.296875 
L 28.515625 8.296875 
L 28.515625 63.921875 
L 10.984375 60.40625 
L 10.984375 69.390625 
L 28.421875 72.90625 
L 38.28125 72.90625 
L 38.28125 8.296875 
L 54.390625 8.296875 
L 54.390625 0 
L 12.40625 0 
z
" id="DejaVuSans-49"/>
      </defs>
      <use xlink:href="#DejaVuSans-49"/>
     </g>
    </g>
   </g>
   <g id="text_4">
    <g clip-path="url(#p82d2896451)">
     <!-- 2 -->
     <g transform="translate(372.103126 173.205825)scale(0.104 -0.104)">
      <defs>
       <path d="M 19.1875 8.296875 
L 53.609375 8.296875 
L 53.609375 0 
L 7.328125 0 
L 7.328125 8.296875 
Q 12.9375 14.109375 22.625 23.890625 
Q 32.328125 33.6875 34.8125 36.53125 
Q 39.546875 41.84375 41.421875 45.53125 
Q 43.3125 49.21875 43.3125 52.78125 
Q 43.3125 58.59375 39.234375 62.25 
Q 35.15625 65.921875 28.609375 65.921875 
Q 23.96875 65.921875 18.8125 64.3125 
Q 13.671875 62.703125 7.8125 59.421875 
L 7.8125 69.390625 
Q 13.765625 71.78125 18.9375 73 
Q 24.125 74.21875 28.421875 74.21875 
Q 39.75 74.21875 46.484375 68.546875 
Q 53.21875 62.890625 53.21875 53.421875 
Q 53.21875 48.921875 51.53125 44.890625 
Q 49.859375 40.875 45.40625 35.40625 
Q 44.1875 33.984375 37.640625 27.21875 
Q 31.109375 20.453125 19.1875 8.296875 
z
" id="DejaVuSans-50"/>
      </defs>
      <use xlink:href="#DejaVuSans-50"/>
     </g>
    </g>
   </g>
   <g id="text_5">
    <g clip-path="url(#p82d2896451)">
     <!-- ${q}_{0}$ -->
     <g transform="translate(36.363136 48.011777)scale(0.1625 -0.1625)">
      <defs>
       <path d="M 41.703125 8.203125 
Q 38.09375 3.46875 33.171875 1.015625 
Q 28.265625 -1.421875 22.3125 -1.421875 
Q 14.015625 -1.421875 9.296875 4.171875 
Q 4.59375 9.765625 4.59375 19.578125 
Q 4.59375 27.484375 7.5 34.859375 
Q 10.40625 42.234375 15.828125 48.09375 
Q 19.34375 51.90625 23.90625 53.953125 
Q 28.46875 56 33.5 56 
Q 39.546875 56 43.453125 53.609375 
Q 47.359375 51.21875 49.125 46.390625 
L 50.6875 54.59375 
L 59.71875 54.59375 
L 45.125 -20.609375 
L 36.078125 -20.609375 
z
M 13.921875 20.90625 
Q 13.921875 13.671875 16.9375 9.890625 
Q 19.96875 6.109375 25.6875 6.109375 
Q 34.1875 6.109375 40.1875 14.234375 
Q 46.1875 22.359375 46.1875 33.984375 
Q 46.1875 41.015625 43.078125 44.75 
Q 39.984375 48.484375 34.1875 48.484375 
Q 29.9375 48.484375 26.3125 46.5 
Q 22.703125 44.53125 20.015625 40.71875 
Q 17.1875 36.71875 15.546875 31.34375 
Q 13.921875 25.984375 13.921875 20.90625 
z
" id="DejaVuSans-Oblique-113"/>
      </defs>
      <use xlink:href="#DejaVuSans-Oblique-113"/>
      <use transform="translate(63.476562 -16.40625)scale(0.7)" xlink:href="#DejaVuSans-48"/>
     </g>
    </g>
   </g>
   <g id="text_6">
    <g clip-path="url(#p82d2896451)">
     <!-- ${q}_{1}$ -->
     <g transform="translate(36.363136 93.462777)scale(0.1625 -0.1625)">
      <use xlink:href="#DejaVuSans-Oblique-113"/>
      <use transform="translate(63.476562 -16.40625)scale(0.7)" xlink:href="#DejaVuSans-49"/>
     </g>
    </g>
   </g>
   <g id="text_7">
    <g clip-path="url(#p82d2896451)">
     <!-- ${q}_{2}$ -->
     <g transform="translate(36.363136 138.913777)scale(0.1625 -0.1625)">
      <use xlink:href="#DejaVuSans-Oblique-113"/>
      <use transform="translate(63.476562 -16.40625)scale(0.7)" xlink:href="#DejaVuSans-50"/>
     </g>
    </g>
   </g>
   <g id="text_8">
    <g clip-path="url(#p82d2896451)">
     <!-- 3 -->
     <g transform="translate(68.035936 173.205825)scale(0.104 -0.104)">
      <defs>
       <path d="M 40.578125 39.3125 
Q 47.65625 37.796875 51.625 33 
Q 55.609375 28.21875 55.609375 21.1875 
Q 55.609375 10.40625 48.1875 4.484375 
Q 40.765625 -1.421875 27.09375 -1.421875 
Q 22.515625 -1.421875 17.65625 -0.515625 
Q 12.796875 0.390625 7.625 2.203125 
L 7.625 11.71875 
Q 11.71875 9.328125 16.59375 8.109375 
Q 21.484375 6.890625 26.8125 6.890625 
Q 36.078125 6.890625 40.9375 10.546875 
Q 45.796875 14.203125 45.796875 21.1875 
Q 45.796875 27.640625 41.28125 31.265625 
Q 36.765625 34.90625 28.71875 34.90625 
L 20.21875 34.90625 
L 20.21875 43.015625 
L 29.109375 43.015625 
Q 36.375 43.015625 40.234375 45.921875 
Q 44.09375 48.828125 44.09375 54.296875 
Q 44.09375 59.90625 40.109375 62.90625 
Q 36.140625 65.921875 28.71875 65.921875 
Q 24.65625 65.921875 20.015625 65.03125 
Q 15.375 64.15625 9.8125 62.3125 
L 9.8125 71.09375 
Q 15.4375 72.65625 20.34375 73.4375 
Q 25.25 74.21875 29.59375 74.21875 
Q 40.828125 74.21875 47.359375 69.109375 
Q 53.90625 64.015625 53.90625 55.328125 
Q 53.90625 49.265625 50.4375 45.09375 
Q 46.96875 40.921875 40.578125 39.3125 
z
" id="DejaVuSans-51"/>
      </defs>
      <use xlink:href="#DejaVuSans-51"/>
     </g>
    </g>
   </g>
   <g id="text_9">
    <g clip-path="url(#p82d2896451)">
     <!-- c -->
     <g transform="translate(45.465675 184.397784)scale(0.1625 -0.1625)">
      <defs>
       <path d="M 48.78125 52.59375 
L 48.78125 44.1875 
Q 44.96875 46.296875 41.140625 47.34375 
Q 37.3125 48.390625 33.40625 48.390625 
Q 24.65625 48.390625 19.8125 42.84375 
Q 14.984375 37.3125 14.984375 27.296875 
Q 14.984375 17.28125 19.8125 11.734375 
Q 24.65625 6.203125 33.40625 6.203125 
Q 37.3125 6.203125 41.140625 7.25 
Q 44.96875 8.296875 48.78125 10.40625 
L 48.78125 2.09375 
Q 45.015625 0.34375 40.984375 -0.53125 
Q 36.96875 -1.421875 32.421875 -1.421875 
Q 20.0625 -1.421875 12.78125 6.34375 
Q 5.515625 14.109375 5.515625 27.296875 
Q 5.515625 40.671875 12.859375 48.328125 
Q 20.21875 56 33.015625 56 
Q 37.15625 56 41.109375 55.140625 
Q 45.0625 54.296875 48.78125 52.59375 
z
" id="DejaVuSans-99"/>
      </defs>
      <use xlink:href="#DejaVuSans-99"/>
     </g>
    </g>
   </g>
  </g>
 </g>
 <defs>
  <clipPath id="p82d2896451">
   <rect height="199.9844" width="383.538036" x="7.2" y="7.2"/>
  </clipPath>
 </defs>
</svg>
