<?xml version="1.0" encoding="utf-8" standalone="no"?>
<!DOCTYPE svg PUBLIC "-//W3C//DTD SVG 1.1//EN"
  "http://www.w3.org/Graphics/SVG/1.1/DTD/svg11.dtd">
<svg height="231.84pt" version="1.1" viewBox="0 0 349.2 231.84" width="349.2pt" xmlns="http://www.w3.org/2000/svg" xmlns:xlink="http://www.w3.org/1999/xlink">
 <metadata>
  <rdf:RDF xmlns:cc="http://creativecommons.org/ns#" xmlns:dc="http://purl.org/dc/elements/1.1/" xmlns:rdf="http://www.w3.org/1999/02/22-rdf-syntax-ns#">
   <cc:Work>
    <dc:type rdf:resource="http://purl.org/dc/dcmitype/StillImage"/>
    <dc:date>2021-06-13T22:28:58.062670</dc:date>
    <dc:format>image/svg+xml</dc:format>
    <dc:creator>
     <cc:Agent>
      <dc:title>Matplotlib v3.4.2, https://matplotlib.org/</dc:title>
     </cc:Agent>
    </dc:creator>
   </cc:Work>
  </rdf:RDF>
 </metadata>
 <defs>
  <style type="text/css">*{stroke-linecap:butt;stroke-linejoin:round;}</style>
 </defs>
 <g id="figure_1">
  <g id="patch_1">
   <path d="M 0 231.84 
L 349.2 231.84 
L 349.2 0 
L 0 0 
z
" style="fill:none;"/>
  </g>
  <g id="axes_1">
   <g id="patch_2">
    <path d="M 7.2 224.64 
L 342 224.64 
L 342 7.2 
L 7.2 7.2 
z
" style="fill:#ffffff;"/>
   </g>
   <g id="LineCollection_1">
    <path clip-path="url(#p638210c535)" d="M 213.028819 31.097403 
L 22.418182 17.083636 
" style="fill:none;stroke:#000000;stroke-opacity:0.8;"/>
    <path clip-path="url(#p638210c535)" d="M 213.028819 31.097403 
L 136.177334 200.746597 
" style="fill:none;stroke:#000000;stroke-opacity:0.8;"/>
    <path clip-path="url(#p638210c535)" d="M 213.028819 31.097403 
L 326.781818 214.756364 
" style="fill:none;stroke:#000000;stroke-opacity:0.8;"/>
    <path clip-path="url(#p638210c535)" d="M 22.418182 17.083636 
L 136.177334 200.746597 
" style="fill:none;stroke:#000000;stroke-opacity:0.8;"/>
    <path clip-path="url(#p638210c535)" d="M 136.177334 200.746597 
L 326.781818 214.756364 
" style="fill:none;stroke:#000000;stroke-opacity:0.8;"/>
   </g>
   <g id="text_1">
    <g id="patch_3">
     <path clip-path="url(#p638210c535)" d="M 109.218562 31.325454 
L 125.07888 32.49151 
Q 128.070805 32.711478 128.290772 29.719553 
L 129.000396 20.067479 
Q 129.220364 17.075554 126.228439 16.855586 
L 110.368121 15.68953 
Q 107.376196 15.469562 107.156228 18.461487 
L 106.446604 28.113561 
Q 106.226637 31.105486 109.218562 31.325454 
z
" style="fill:#ffffff;stroke:#ffffff;stroke-linejoin:miter;"/>
    </g>
    <g clip-path="url(#p638210c535)">
     <!-- 1.0 -->
     <g transform="translate(109.591017 26.259439)rotate(-355.795158)scale(0.1 -0.1)">
      <defs>
       <path d="M 794 531 
L 1825 531 
L 1825 4091 
L 703 3866 
L 703 4441 
L 1819 4666 
L 2450 4666 
L 2450 531 
L 3481 531 
L 3481 0 
L 794 0 
L 794 531 
z
" id="DejaVuSans-31" transform="scale(0.015625)"/>
       <path d="M 684 794 
L 1344 794 
L 1344 0 
L 684 0 
L 684 794 
z
" id="DejaVuSans-2e" transform="scale(0.015625)"/>
       <path d="M 2034 4250 
Q 1547 4250 1301 3770 
Q 1056 3291 1056 2328 
Q 1056 1369 1301 889 
Q 1547 409 2034 409 
Q 2525 409 2770 889 
Q 3016 1369 3016 2328 
Q 3016 3291 2770 3770 
Q 2525 4250 2034 4250 
z
M 2034 4750 
Q 2819 4750 3233 4129 
Q 3647 3509 3647 2328 
Q 3647 1150 3233 529 
Q 2819 -91 2034 -91 
Q 1250 -91 836 529 
Q 422 1150 422 2328 
Q 422 3509 836 4129 
Q 1250 4750 2034 4750 
z
" id="DejaVuSans-30" transform="scale(0.015625)"/>
      </defs>
      <use xlink:href="#DejaVuSans-31"/>
      <use x="63.623047" xlink:href="#DejaVuSans-2e"/>
      <use x="95.410156" xlink:href="#DejaVuSans-30"/>
     </g>
    </g>
   </g>
   <g id="text_2">
    <g id="patch_4">
     <path clip-path="url(#p638210c535)" d="M 178.462527 126.399733 
L 185.024755 111.913652 
Q 186.262669 109.180967 183.529983 107.943053 
L 174.714225 103.949494 
Q 171.981539 102.711581 170.743626 105.444267 
L 164.181397 119.930348 
Q 162.943484 122.663033 165.67617 123.900947 
L 174.491928 127.894506 
Q 177.224614 129.132419 178.462527 126.399733 
z
" style="fill:#ffffff;stroke:#ffffff;stroke-linejoin:miter;"/>
    </g>
    <g clip-path="url(#p638210c535)">
     <!-- 1.0 -->
     <g transform="translate(173.835464 124.303663)rotate(-65.629361)scale(0.1 -0.1)">
      <use xlink:href="#DejaVuSans-31"/>
      <use x="63.623047" xlink:href="#DejaVuSans-2e"/>
      <use x="95.410156" xlink:href="#DejaVuSans-30"/>
     </g>
    </g>
   </g>
   <g id="text_3">
    <g id="patch_5">
     <path clip-path="url(#p638210c535)" d="M 259.05408 120.294609 
L 267.427922 133.814526 
Q 269.007582 136.364952 271.558008 134.785293 
L 279.78579 129.689244 
Q 282.336217 128.109585 280.756557 125.559158 
L 272.382715 112.039241 
Q 270.803055 109.488815 268.252629 111.068475 
L 260.024847 116.164523 
Q 257.47442 117.744182 259.05408 120.294609 
z
" style="fill:#ffffff;stroke:#ffffff;stroke-linejoin:miter;"/>
    </g>
    <g clip-path="url(#p638210c535)">
     <!-- 1.0 -->
     <g transform="translate(263.372536 117.619883)rotate(-301.772865)scale(0.1 -0.1)">
      <use xlink:href="#DejaVuSans-31"/>
      <use x="63.623047" xlink:href="#DejaVuSans-2e"/>
      <use x="95.410156" xlink:href="#DejaVuSans-30"/>
     </g>
    </g>
   </g>
   <g id="text_4">
    <g id="patch_6">
     <path clip-path="url(#p638210c535)" d="M 68.446481 106.282999 
L 76.820519 119.802795 
Q 78.400215 122.353198 80.950619 120.773502 
L 89.178327 115.677335 
Q 91.728731 114.097638 90.149034 111.547234 
L 81.774997 98.027438 
Q 80.1953 95.477035 77.644897 97.056731 
L 69.417188 102.152898 
Q 66.866785 103.732595 68.446481 106.282999 
z
" style="fill:#ffffff;stroke:#ffffff;stroke-linejoin:miter;"/>
    </g>
    <g clip-path="url(#p638210c535)">
     <!-- 1.0 -->
     <g transform="translate(72.764899 103.60821)rotate(-301.773694)scale(0.1 -0.1)">
      <use xlink:href="#DejaVuSans-31"/>
      <use x="63.623047" xlink:href="#DejaVuSans-2e"/>
      <use x="95.410156" xlink:href="#DejaVuSans-30"/>
     </g>
    </g>
   </g>
   <g id="text_5">
    <g id="patch_7">
     <path clip-path="url(#p638210c535)" d="M 222.974771 214.986571 
L 238.835111 216.152334 
Q 241.82704 216.372246 242.046952 213.380317 
L 242.756398 203.72823 
Q 242.97631 200.736301 239.984381 200.516389 
L 224.124041 199.350626 
Q 221.132112 199.130714 220.9122 202.122643 
L 220.202754 211.77473 
Q 219.982842 214.766659 222.974771 214.986571 
z
" style="fill:#ffffff;stroke:#ffffff;stroke-linejoin:miter;"/>
    </g>
    <g clip-path="url(#p638210c535)">
     <!-- 1.0 -->
     <g transform="translate(223.347133 209.92055)rotate(-355.796218)scale(0.1 -0.1)">
      <use xlink:href="#DejaVuSans-31"/>
      <use x="63.623047" xlink:href="#DejaVuSans-2e"/>
      <use x="95.410156" xlink:href="#DejaVuSans-30"/>
     </g>
    </g>
   </g>
   <g id="matplotlib.axis_1">
    <g id="xtick_1"/>
    <g id="xtick_2"/>
    <g id="xtick_3"/>
    <g id="xtick_4"/>
    <g id="xtick_5"/>
    <g id="xtick_6"/>
    <g id="xtick_7"/>
    <g id="xtick_8"/>
    <g id="xtick_9"/>
   </g>
   <g id="matplotlib.axis_2">
    <g id="ytick_1"/>
    <g id="ytick_2"/>
    <g id="ytick_3"/>
    <g id="ytick_4"/>
    <g id="ytick_5"/>
   </g>
   <g id="PathCollection_1">
    <defs>
     <path d="M 0 12.247449 
C 3.248061 12.247449 6.363528 10.95698 8.660254 8.660254 
C 10.95698 6.363528 12.247449 3.248061 12.247449 -0 
C 12.247449 -3.248061 10.95698 -6.363528 8.660254 -8.660254 
C 6.363528 -10.95698 3.248061 -12.247449 0 -12.247449 
C -3.248061 -12.247449 -6.363528 -10.95698 -8.660254 -8.660254 
C -10.95698 -6.363528 -12.247449 -3.248061 -12.247449 0 
C -12.247449 3.248061 -10.95698 6.363528 -8.660254 8.660254 
C -6.363528 10.95698 -3.248061 12.247449 0 12.247449 
z
" id="C0_0_fec1ba6b9b"/>
    </defs>
    <g clip-path="url(#p638210c535)">
     <use style="fill:#ff0000;fill-opacity:0.8;stroke:#ff0000;stroke-opacity:0.8;" x="213.028819" xlink:href="#C0_0_fec1ba6b9b" y="31.097403"/>
    </g>
    <g clip-path="url(#p638210c535)">
     <use style="fill:#ff0000;fill-opacity:0.8;stroke:#ff0000;stroke-opacity:0.8;" x="22.418182" xlink:href="#C0_0_fec1ba6b9b" y="17.083636"/>
    </g>
    <g clip-path="url(#p638210c535)">
     <use style="fill:#ff0000;fill-opacity:0.8;stroke:#ff0000;stroke-opacity:0.8;" x="136.177334" xlink:href="#C0_0_fec1ba6b9b" y="200.746597"/>
    </g>
    <g clip-path="url(#p638210c535)">
     <use style="fill:#ff0000;fill-opacity:0.8;stroke:#ff0000;stroke-opacity:0.8;" x="326.781818" xlink:href="#C0_0_fec1ba6b9b" y="214.756364"/>
    </g>
   </g>
   <g id="patch_8">
    <path d="M 7.2 224.64 
L 7.2 7.2 
" style="fill:none;stroke:#000000;stroke-linecap:square;stroke-linejoin:miter;stroke-width:0.8;"/>
   </g>
   <g id="patch_9">
    <path d="M 342 224.64 
L 342 7.2 
" style="fill:none;stroke:#000000;stroke-linecap:square;stroke-linejoin:miter;stroke-width:0.8;"/>
   </g>
   <g id="patch_10">
    <path d="M 7.2 224.64 
L 342 224.64 
" style="fill:none;stroke:#000000;stroke-linecap:square;stroke-linejoin:miter;stroke-width:0.8;"/>
   </g>
   <g id="patch_11">
    <path d="M 7.2 7.2 
L 342 7.2 
" style="fill:none;stroke:#000000;stroke-linecap:square;stroke-linejoin:miter;stroke-width:0.8;"/>
   </g>
   <g id="text_6">
    <g clip-path="url(#p638210c535)">
     <!-- 0 -->
     <g style="opacity:0.8;" transform="translate(209.211319 34.408653)scale(0.12 -0.12)">
      <use xlink:href="#DejaVuSans-30"/>
     </g>
    </g>
   </g>
   <g id="text_7">
    <g clip-path="url(#p638210c535)">
     <!-- 1 -->
     <g style="opacity:0.8;" transform="translate(18.600682 20.394886)scale(0.12 -0.12)">
      <use xlink:href="#DejaVuSans-31"/>
     </g>
    </g>
   </g>
   <g id="text_8">
    <g clip-path="url(#p638210c535)">
     <!-- 2 -->
     <g style="opacity:0.8;" transform="translate(132.359834 204.057847)scale(0.12 -0.12)">
      <defs>
       <path d="M 1228 531 
L 3431 531 
L 3431 0 
L 469 0 
L 469 531 
Q 828 903 1448 1529 
Q 2069 2156 2228 2338 
Q 2531 2678 2651 2914 
Q 2772 3150 2772 3378 
Q 2772 3750 2511 3984 
Q 2250 4219 1831 4219 
Q 1534 4219 1204 4116 
Q 875 4013 500 3803 
L 500 4441 
Q 881 4594 1212 4672 
Q 1544 4750 1819 4750 
Q 2544 4750 2975 4387 
Q 3406 4025 3406 3419 
Q 3406 3131 3298 2873 
Q 3191 2616 2906 2266 
Q 2828 2175 2409 1742 
Q 1991 1309 1228 531 
z
" id="DejaVuSans-32" transform="scale(0.015625)"/>
      </defs>
      <use xlink:href="#DejaVuSans-32"/>
     </g>
    </g>
   </g>
   <g id="text_9">
    <g clip-path="url(#p638210c535)">
     <!-- 3 -->
     <g style="opacity:0.8;" transform="translate(322.964318 218.067614)scale(0.12 -0.12)">
      <defs>
       <path d="M 2597 2516 
Q 3050 2419 3304 2112 
Q 3559 1806 3559 1356 
Q 3559 666 3084 287 
Q 2609 -91 1734 -91 
Q 1441 -91 1130 -33 
Q 819 25 488 141 
L 488 750 
Q 750 597 1062 519 
Q 1375 441 1716 441 
Q 2309 441 2620 675 
Q 2931 909 2931 1356 
Q 2931 1769 2642 2001 
Q 2353 2234 1838 2234 
L 1294 2234 
L 1294 2753 
L 1863 2753 
Q 2328 2753 2575 2939 
Q 2822 3125 2822 3475 
Q 2822 3834 2567 4026 
Q 2313 4219 1838 4219 
Q 1578 4219 1281 4162 
Q 984 4106 628 3988 
L 628 4550 
Q 988 4650 1302 4700 
Q 1616 4750 1894 4750 
Q 2613 4750 3031 4423 
Q 3450 4097 3450 3541 
Q 3450 3153 3228 2886 
Q 3006 2619 2597 2516 
z
" id="DejaVuSans-33" transform="scale(0.015625)"/>
      </defs>
      <use xlink:href="#DejaVuSans-33"/>
     </g>
    </g>
   </g>
  </g>
 </g>
 <defs>
  <clipPath id="p638210c535">
   <rect height="217.44" width="334.8" x="7.2" y="7.2"/>
  </clipPath>
 </defs>
</svg>
